<?xml version="1.0" encoding="UTF-8"?>
<svg xmlns="http://www.w3.org/2000/svg" id="Capa_2" data-name="Capa 2" viewBox="0 0 170.12 33.87">
  <defs>
    <style>
      .cls-1 {
        fill: #fff;
      }
    </style>
  </defs>
  <g id="Capa_1-2" data-name="Capa 1">
    <g>
      <path id="Trazado_40" data-name="Trazado 40" class="cls-1" d="m12.89,28.7h-2.2v-.66h5.05v.66h-2.2v5.02h-.65v-5.02Zm9.89-.66h2.99c.81-.09,1.54.49,1.63,1.3.01.09.01.18,0,.28.04.77-.49,1.45-1.24,1.6l1.31,2.5h-.72l-1.31-2.48h-2.03v2.48h-.65v-5.68Zm2.95,2.53c.66,0,1-.33,1-.93.04-.48-.31-.9-.79-.95-.06,0-.12,0-.18,0h-2.34v1.87h2.31Zm11.06-2.53h.54l2.59,5.68h-.71l-.71-1.53h-2.89l-.69,1.53h-.7l2.57-5.68Zm1.42,3.48l-1.15-2.52-1.14,2.52h2.3Zm10.46,2.19l-2.52-5.68h.71l2.01,4.55,2.01-4.55h.72l-2.53,5.68h-.41Zm10.44-5.68h4.11v.66h-3.46v1.67h2.09v.66h-2.09v2.05h3.67v.66h-4.32v-5.69Zm12.07,0h.65v5.02h3.4v.66h-4.06v-5.68Zm23.41,0h.54l2.59,5.68h-.71l-.71-1.53h-2.89l-.69,1.53h-.7l2.56-5.68Zm1.42,3.48l-1.15-2.52-1.14,2.52h2.3Zm13.1-.18h-1.42v-.66h2.07v1.71c-.44.91-1.36,1.48-2.37,1.46-1.64-.15-2.85-1.61-2.69-3.25.13-1.43,1.27-2.56,2.69-2.69.95,0,1.82.5,2.29,1.33l-.54.42c-.32-.67-1-1.1-1.74-1.08-1.28.17-2.18,1.34-2.01,2.61.14,1.05.96,1.87,2.01,2.01.72,0,1.38-.39,1.71-1.02v-.83Zm8.77-3.31h4.11v.66h-3.46v1.67h2.09v.66h-2.09v2.05h3.67v.66h-4.32v-5.69Zm12.07,0h.34l3.39,4.24v-4.24h.65v5.68h-.33l-3.4-4.24v4.24h-.65v-5.68Zm17.41,4.29c-.42.95-1.37,1.55-2.4,1.54-1.64-.15-2.85-1.61-2.69-3.25.13-1.43,1.27-2.56,2.69-2.69.95,0,1.82.5,2.29,1.33l-.54.42c-.32-.67-1-1.1-1.74-1.08-1.28.16-2.18,1.33-2.02,2.6.13,1.06.96,1.89,2.02,2.02.83,0,1.58-.52,1.88-1.3l.52.42Zm9.03-1.45l-2.35-2.83h.81l1.87,2.24,1.87-2.24h.82l-2.37,2.84v2.83h-.65v-2.85Z"></path>
      <g>
        <path id="Trazado_41" data-name="Trazado 41" class="cls-1" d="m0,.31h4.94c1.39-.11,2.75.38,3.75,1.34.91,1.11,1.35,2.52,1.25,3.94v2.1c.1,1.42-.35,2.83-1.25,3.94-1,.96-2.37,1.45-3.75,1.34h-1.59v8.7H0V.31Zm4.94,9.61c.46.03.91-.13,1.24-.46.32-.45.46-1,.41-1.56v-2.53c.05-.55-.09-1.1-.41-1.56-.33-.33-.78-.49-1.24-.46h-1.59v6.56h1.59ZM14.83.31h9.16v3.05h-5.8v5.65h4.6v3.05h-4.6v6.56h5.8v3.05h-9.16V.31Zm14.13,0h4.98c1.37-.12,2.74.31,3.79,1.21.87,1.03,1.3,2.36,1.19,3.71v1.31c0,2.22-.73,3.62-2.2,4.21v.06c.77.21,1.41.76,1.73,1.5.37.96.54,1.99.5,3.02v3.76c0,.49.01.99.06,1.48.04.38.15.76.31,1.11h-3.42c-.11-.32-.2-.64-.24-.98-.05-.55-.07-1.1-.06-1.65v-3.91c.07-.71-.1-1.43-.47-2.04-.43-.43-1.03-.64-1.63-.58h-1.16v9.16h-3.36V.31Zm4.58,9.16c.55.04,1.1-.14,1.51-.52.38-.49.56-1.12.5-1.74v-1.65c.05-.59-.1-1.18-.41-1.68-.33-.37-.81-.56-1.3-.52h-1.53v6.1h1.22Zm11.93,11.13c-.92-1.12-1.38-2.54-1.28-3.98V.3h3.36v16.55c-.05.57.11,1.13.44,1.59.72.65,1.81.65,2.53,0,.34-.46.49-1.02.44-1.59V.31h3.23v16.3c.1,1.44-.36,2.87-1.28,3.98-2.14,1.85-5.31,1.85-7.45,0"></path>
        <path id="Trazado_42" data-name="Trazado 42" class="cls-1" d="m60.69,20.6c-.9-1.08-1.36-2.47-1.27-3.88V5.25c-.09-1.41.36-2.79,1.27-3.88,2.11-1.83,5.25-1.83,7.36,0,.9,1.08,1.36,2.47,1.27,3.88v2.26h-3.18v-2.47c0-1.32-.56-1.98-1.68-1.98s-1.68.66-1.68,1.98v11.93c0,1.3.56,1.95,1.68,1.95s1.68-.65,1.68-1.95v-3.27h3.17v3.02c.09,1.41-.36,2.79-1.27,3.88-2.11,1.83-5.25,1.83-7.36,0m14.82-.03c-.93-1.1-1.41-2.53-1.31-3.97V5.37c-.09-1.44.38-2.86,1.31-3.97,2.18-1.87,5.39-1.87,7.57,0,.93,1.1,1.41,2.52,1.31,3.97v11.23c.09,1.44-.38,2.87-1.31,3.97-2.18,1.87-5.39,1.87-7.57,0m5.52-3.75V5.16c0-1.4-.58-2.1-1.74-2.1s-1.74.7-1.74,2.1v11.66c0,1.4.58,2.1,1.74,2.1s1.74-.7,1.74-2.1M89.7.31h4.21l3.27,12.79h.06V.31h2.99v21.36h-3.44l-4.03-15.6h-.06v15.6h-2.99V.31Zm16.09,0h9.16v3.05h-5.8v5.65h4.6v3.05h-4.6v6.56h5.8v3.05h-9.16V.31Zm17.16,10.44l-3.69-10.44h3.54l2.26,6.89h.06l2.32-6.9h3.17l-3.69,10.45,3.88,10.93h-3.54l-2.44-7.45h-.06l-2.5,7.45h-3.17l3.87-10.93ZM135.42.31h3.36v21.36h-3.35V.31Zm9.98,20.27c-.93-1.1-1.41-2.53-1.31-3.97V5.37c-.09-1.44.38-2.86,1.31-3.97,2.18-1.87,5.39-1.87,7.57,0,.93,1.1,1.41,2.52,1.31,3.97v11.23c.09,1.44-.38,2.87-1.31,3.97-2.18,1.87-5.39,1.87-7.57,0m5.52-3.75V5.16c0-1.4-.58-2.1-1.74-2.1s-1.74.7-1.74,2.1v11.66c0,1.4.58,2.1,1.74,2.1s1.74-.7,1.74-2.1M159.59.31h4.21l3.27,12.79h.06V.31h2.99v21.36h-3.45l-4.02-15.6h-.06v15.6h-2.99V.31Z"></path>
      </g>
    </g>
  </g>
</svg>
