<?xml version="1.0" encoding="UTF-8"?>
<svg xmlns="http://www.w3.org/2000/svg" xmlns:xlink="http://www.w3.org/1999/xlink" width="71.229" height="64" viewBox="0 0 71.229 64">
  <defs>
    <clipPath id="clip-path">
      <rect id="Rectángulo_4" data-name="Rectángulo 4" width="71.229" height="64" fill="none"></rect>
    </clipPath>
  </defs>
  <g id="machu-picchu-100-years" clip-path="url(#clip-path)">
    <path id="Trazado_4" data-name="Trazado 4" d="M28.779,16.674c-1.464-1.569-2.3-3.555-3.137-3.451a6.588,6.588,0,0,0-2.928.837c-.941.627-3.66,1.778-1.882,2.823.732.627,1.255,1.359,1.987,1.255s-.418.837-1.778.314S15.6,12.805,15.6,12.805s-1.046-1.36-1.673-.523.418,4.6.418,4.6,2.2,2.4.836,1.987-1.778-2.2-3.974-1.046a5.525,5.525,0,0,0-2.719,3.242,1.355,1.355,0,0,0,1.15,2.2,10.887,10.887,0,0,0,4.287.523s1.046-.209,2.092,1.359,1.883,2.092,3.346,2.092,4.287.209,4.6,2.3c-.1,1.569,1.673.837,1.673.837s2.091.313-.209,1.673c-.732.314-1.778-.523-2.3,1.36a7.968,7.968,0,0,1-1.464,2.4s-1.046,2.719-3.451,3.242c-.837-.314-.1-1.15-.1-1.15A36.579,36.579,0,0,0,22.4,32.883c.1-3.869-.628-3.765-.628-3.765s-.732-.313-.627,1.151.627,2.509-.941,3.346a51.747,51.747,0,0,1-4.183,4.5s-1.046.1-.1-1.464,1.569-3.66,1.882-4.183a3.064,3.064,0,0,0-.941-2.824c-.732-.418-1.046-1.464-1.882-.941-.209.627.627,1.464.627,1.464s1.464,2.405.627,3.66c-.732,1.15-1.15,2.928-1.569,2.928s-1.046,1.046-1.778.1a.934.934,0,0,1,0-1.15l-.732-.418s2.3-2.614,2.719-4.183a3.7,3.7,0,0,0-.627-2.928s-1.255-.314-.628.732.837,1.36-.209,2.719-1.569,2.823-2.719,3.451a3.919,3.919,0,0,1-2.614.209s-.1-.21,1.359-1.673a22.523,22.523,0,0,0,3.033-4.6s.209-1.464-.941-1.673-1.673-.314-1.673-.314-.314-1.464-1.045-1.569a10.366,10.366,0,0,0-1.882,0s-.941-.209-1.255,0-.209.523.523.523a4.694,4.694,0,0,1,1.987.418c.314.209,1.15.941,1.15.941l.314,1.15s2.3-.209,1.046,1.673S7.76,34.138,7.76,34.138s.1-2.405-1.255-3.137a11.256,11.256,0,0,0-3.137.1s-.523-3.137-.889-3.137c0,0-3.137.157-2.353-1.882,1.412-1.1,4.549-2.039,6.431-4.863s4.235-6.588,6.117-9.725c1.882-2.353,3.765.941,3.765.941s2.353,2.823,2.824,2.823a13.793,13.793,0,0,0,4.862-3.451,47.179,47.179,0,0,0,6.117-8.784C31.968.361,34.477-.737,36.2.518a28.559,28.559,0,0,1,4.706,5.333,3.586,3.586,0,0,0,2.98,2.039c3.137.784,6.745,2.666,8,2.823a10.023,10.023,0,0,1,5.8,2.51,11.9,11.9,0,0,1,3.765,3.608l1.412,2.2a12.58,12.58,0,0,0,3.137,3.608,13.551,13.551,0,0,1,4.078,3.608c.47.941-.156,1.882-1.255.47a36.313,36.313,0,0,0-3.137-3.033s-2.614-2.405-3.137-3.765a1.1,1.1,0,0,0-2.091-.209,19.531,19.531,0,0,0-1.673,5.019c-.523,3.66-1.882,2.405-1.882,2.405s-1.255,0,.523-4.5,1.359-6.17,1.359-6.17.209-.627-.627-.1-.627,3.66-.627,3.66-.732,1.15-1.045.314A50.514,50.514,0,0,0,56.7,14.06s-.418-1.464-.732-.209-.941,1.464-1.046,8.052c-.418,2.928-1.464.418-1.464.418s.1-4.81.314-6.9.21-4.183-1.15-3.242c.1,7.006-.523,6.483-.523,6.483s-.941.209-1.15-3.66c-.1-3.033.1-3.869-.732-3.451a7.224,7.224,0,0,1-.627,2.719s-.837.314-.837-.837-.1-2.719-.1-2.719-.732-.209-.941.732-.941-.418-.941-.418-.941-2.4-2.614-2.3c-1.255-.314-1.673-.314-1.673,1.359s-.523,2.2-1.255,1.673-1.359-4.81-1.359-4.81-1.255-3.764-3.869-5.124c-1.36-.627-2.405,2.2-2.405,2.2S31.915,9.564,31.5,11.446a41.206,41.206,0,0,0-.627,4.706s-.627,2.091-2.091.523M43.837,26.19s.836,0,1.15-2.091c.941-.418,3.556,2.3,3.869,2.405s1.778,1.15,2.091.523c0,0-5.228-3.346-6.169-4.5a9.327,9.327,0,0,0-3.451-.837A7.314,7.314,0,0,0,36.1,19.289a31.069,31.069,0,0,1-4.183-.314s-3.555-.418-2.928.314,2.092.523,2.092.523,3.555-.209,4.81.418l2.3,1.15s1.778.837-2.405.418-2.3.941-2.3.941,5.751.209,6.065-.418,1.15,0,1.987.314,1.36.837.1.941a6.937,6.937,0,0,0-2.405.732l-3.974.1s-.941-.1-.836.418,1.36.1,1.882.1,3.66-.209,3.66-.209,3.137.1,3.346-1.359c1.046-.418,1.255.523,1.255.523a1.985,1.985,0,0,1-1.15,1.673l-3.869.418s-1.569.209-.523.837,4.81-.627,4.81-.627M37.42,41.774h1.489V32.425H36.883l-2.256,5.843-2.189-5.843H30.352v9.349h1.5V37.911l-.043-3.676,2.11,7.539h1.452l2.085-7.539-.037,3.676Zm7.236-9.349,3.219,9.349H46.152l-.779-2.391h-3.2l-.747,2.391H39.783l3.08-9.349Zm.329,5.521L43.75,33.973l-1.192,3.973Zm24.688-5.521v5.328a6.243,6.243,0,0,1-.1,1.216,2.013,2.013,0,0,1-.312.779,1.163,1.163,0,0,1-.544.417,2.271,2.271,0,0,1-.792.123,2.241,2.241,0,0,1-.822-.133,1.17,1.17,0,0,1-.543-.434,2.064,2.064,0,0,1-.3-.785,6.442,6.442,0,0,1-.093-1.182V32.425H64.615v5.348q0,.553.045,1.069a5.3,5.3,0,0,0,.171.967,3.173,3.173,0,0,0,.354.819,2.254,2.254,0,0,0,.6.638,2.7,2.7,0,0,0,.894.413,4.776,4.776,0,0,0,1.251.143,4.425,4.425,0,0,0,1.3-.167,2.747,2.747,0,0,0,.9-.455,2.268,2.268,0,0,0,.582-.676,3.48,3.48,0,0,0,.337-.84,5.143,5.143,0,0,0,.15-.939q.033-.488.033-.973V32.425ZM34.435,49.881a4.2,4.2,0,0,1-1.307.186H31.688v3.366H30.207V44.451h2.962a7.519,7.519,0,0,1,.869.046,2.877,2.877,0,0,1,.723.176,2.015,2.015,0,0,1,.583.348,2.048,2.048,0,0,1,.449.571,2.631,2.631,0,0,1,.289.737,3.782,3.782,0,0,1,.088.83,3.665,3.665,0,0,1-.2,1.258,2.344,2.344,0,0,1-.583.91,2.463,2.463,0,0,1-.955.554m-.1-1.613a1.09,1.09,0,0,0,.243-.441,2.157,2.157,0,0,0,.077-.607,1.922,1.922,0,0,0-.046-.422,1.622,1.622,0,0,0-.129-.368,1.028,1.028,0,0,0-.2-.282.779.779,0,0,0-.258-.169,2.316,2.316,0,0,0-.563-.1q-.351-.026-.774-.027h-1v2.815h1.3q.14,0,.277-.014a2.081,2.081,0,0,0,.64-.109,1.068,1.068,0,0,0,.429-.276M37.5,53.433h1.48V44.451H37.5ZM30.339,63.943h1.324V58.307H30.339ZM62.57,53.433V44.451H60.941v3.538h-3.67V44.451H55.642v8.983h1.629v-3.99h3.67v3.99Zm.209-20.8H61.151v3.538H57.48V32.634H55.851v8.982H57.48v-3.99h3.671v3.99h1.629Zm6.426,16.995a6.156,6.156,0,0,1-.094,1.182,1.97,1.97,0,0,1-.3.757,1.108,1.108,0,0,1-.517.4,2.13,2.13,0,0,1-.755.12,2.088,2.088,0,0,1-.783-.13,1.114,1.114,0,0,1-.517-.422,2.016,2.016,0,0,1-.286-.763,6.354,6.354,0,0,1-.089-1.149V44.451h-1.48v5.2q0,.538.043,1.039a5.21,5.21,0,0,0,.163.94,3.116,3.116,0,0,0,.337.8,2.167,2.167,0,0,0,.569.621,2.548,2.548,0,0,0,.852.4,4.467,4.467,0,0,0,1.192.139,4.121,4.121,0,0,0,1.235-.163,2.583,2.583,0,0,0,.86-.441,2.213,2.213,0,0,0,.555-.657,3.449,3.449,0,0,0,.32-.816,5.072,5.072,0,0,0,.142-.913q.032-.475.032-.946v-5.2H69.206ZM46.089,50.984a1.7,1.7,0,0,1-.457.694,1.95,1.95,0,0,1-1.343.448,2.1,2.1,0,0,1-.943-.209,1.957,1.957,0,0,1-.717-.614,3.021,3.021,0,0,1-.456-1,5.175,5.175,0,0,1-.162-1.358,5.107,5.107,0,0,1,.165-1.364,3.011,3.011,0,0,1,.465-1,2,2,0,0,1,.727-.614,2.1,2.1,0,0,1,.94-.209,2.327,2.327,0,0,1,.744.113,1.742,1.742,0,0,1,.583.325,1.637,1.637,0,0,1,.4.518,2.091,2.091,0,0,1,.144.408l1.492-.608a3.539,3.539,0,0,0-.168-.43,2.93,2.93,0,0,0-.857-1.029,3.22,3.22,0,0,0-1.061-.574A4.247,4.247,0,0,0,44.3,44.3a4.058,4.058,0,0,0-1.619.312,3.443,3.443,0,0,0-1.266.943,5.122,5.122,0,0,0-1.054,3.392,6.529,6.529,0,0,0,.26,1.922,4.147,4.147,0,0,0,.794,1.477,3.327,3.327,0,0,0,1.26.933,4.146,4.146,0,0,0,1.626.308,4.254,4.254,0,0,0,1.35-.2,3.178,3.178,0,0,0,1.09-.624,2.86,2.86,0,0,0,.585-.7Zm8.451,1.082L53.3,50.984a1.7,1.7,0,0,1-.457.694,1.949,1.949,0,0,1-1.343.448,2.1,2.1,0,0,1-.944-.209,1.958,1.958,0,0,1-.717-.614,3.021,3.021,0,0,1-.456-1,5.175,5.175,0,0,1-.162-1.358,5.112,5.112,0,0,1,.165-1.364,3.014,3.014,0,0,1,.465-1,2,2,0,0,1,.727-.614,2.1,2.1,0,0,1,.94-.209,2.327,2.327,0,0,1,.744.113,1.74,1.74,0,0,1,.583.325,1.635,1.635,0,0,1,.4.518,2.091,2.091,0,0,1,.144.408l1.492-.608a3.516,3.516,0,0,0-.168-.43,2.93,2.93,0,0,0-.856-1.029,3.222,3.222,0,0,0-1.061-.574,4.246,4.246,0,0,0-1.285-.182,4.059,4.059,0,0,0-1.619.312,3.443,3.443,0,0,0-1.266.943,5.122,5.122,0,0,0-1.054,3.392,6.524,6.524,0,0,0,.26,1.922,4.147,4.147,0,0,0,.794,1.477,3.328,3.328,0,0,0,1.26.933,4.147,4.147,0,0,0,1.626.308,4.253,4.253,0,0,0,1.35-.2,3.177,3.177,0,0,0,1.089-.624,2.863,2.863,0,0,0,.585-.7M50.275,34.818A2,2,0,0,1,51,34.2a2.1,2.1,0,0,1,.94-.209,2.328,2.328,0,0,1,.745.113,1.744,1.744,0,0,1,.583.325,1.639,1.639,0,0,1,.4.518,2.081,2.081,0,0,1,.144.408l1.492-.608a3.366,3.366,0,0,0-.168-.43,2.928,2.928,0,0,0-.856-1.029,3.225,3.225,0,0,0-1.061-.574,4.248,4.248,0,0,0-1.285-.182,4.059,4.059,0,0,0-1.619.312,3.445,3.445,0,0,0-1.266.943,5.121,5.121,0,0,0-1.055,3.393,6.538,6.538,0,0,0,.26,1.922,4.15,4.15,0,0,0,.794,1.477,3.327,3.327,0,0,0,1.26.933,4.146,4.146,0,0,0,1.626.308,4.253,4.253,0,0,0,1.35-.2A3.179,3.179,0,0,0,54.374,41a2.867,2.867,0,0,0,.585-.7l-1.236-1.082a1.709,1.709,0,0,1-.457.694,1.95,1.95,0,0,1-1.343.448,2.1,2.1,0,0,1-.944-.209,1.958,1.958,0,0,1-.716-.614,3.013,3.013,0,0,1-.456-1,5.175,5.175,0,0,1-.162-1.357,5.123,5.123,0,0,1,.165-1.364,3.014,3.014,0,0,1,.465-1m-12.848,24.2a4.7,4.7,0,0,1,0,4.009,1.753,1.753,0,0,1-2.761,0,3.617,3.617,0,0,1-.451-2.007,3.66,3.66,0,0,1,.451-2.007,1.74,1.74,0,0,1,2.761,0m-.536,2.007a7.236,7.236,0,0,0-.047-.877,2.273,2.273,0,0,0-.152-.6.77.77,0,0,0-.263-.345.661.661,0,0,0-.385-.11.647.647,0,0,0-.38.11.777.777,0,0,0-.261.345,2.257,2.257,0,0,0-.151.6,7.046,7.046,0,0,0-.047.877,7.2,7.2,0,0,0,.045.871,2.2,2.2,0,0,0,.146.6.8.8,0,0,0,.259.345.65.65,0,0,0,.388.113.663.663,0,0,0,.391-.113.8.8,0,0,0,.264-.345,2.255,2.255,0,0,0,.146-.6,7.059,7.059,0,0,0,.046-.871m5.64-2.007a4.7,4.7,0,0,1,0,4.009,1.753,1.753,0,0,1-2.761,0,3.617,3.617,0,0,1-.45-2.007,3.66,3.66,0,0,1,.45-2.007,1.74,1.74,0,0,1,2.761,0M42,61.024a7.151,7.151,0,0,0-.047-.877,2.252,2.252,0,0,0-.151-.6.767.767,0,0,0-.263-.345.661.661,0,0,0-.385-.11.645.645,0,0,0-.38.11.771.771,0,0,0-.261.345,2.231,2.231,0,0,0-.151.6,6.965,6.965,0,0,0-.047.877,7.147,7.147,0,0,0,.045.871,2.181,2.181,0,0,0,.147.6.8.8,0,0,0,.259.345.651.651,0,0,0,.388.113.665.665,0,0,0,.391-.113.8.8,0,0,0,.264-.345,2.243,2.243,0,0,0,.146-.6A7.057,7.057,0,0,0,42,61.024m7.747-2.73L52.1,63.765h-.555l-.716-1.783H48.542L47.8,63.765h-.516Zm.922,3.279-.956-2.29-.994,2.29ZM55.45,57.64a.426.426,0,0,1,.219-.054,1.077,1.077,0,0,1,.129.007.775.775,0,0,1,.109.022l.328.1a1.187,1.187,0,0,0,.136.028,1.034,1.034,0,0,0,.131.008.778.778,0,0,0,.508-.17,1.024,1.024,0,0,0,.309-.495h-.361a.372.372,0,0,1-.15.181.474.474,0,0,1-.248.061.686.686,0,0,1-.12-.01,1.1,1.1,0,0,1-.131-.026l-.32-.1a.66.66,0,0,0-.111-.022,1.093,1.093,0,0,0-.132-.007.8.8,0,0,0-.518.165.9.9,0,0,0-.3.478h.361a.446.446,0,0,1,.159-.167m2.542,5.118-4.256-4.424v5.511h.513V59.568L58.5,64V58.558h-.508Zm7.662-2.621a2.6,2.6,0,0,1,.207,1.028,2.562,2.562,0,0,1-.209,1.022,2.655,2.655,0,0,1-.6.861,2.786,2.786,0,0,1-.905.581,2.937,2.937,0,0,1-2.127,0,2.751,2.751,0,0,1-.9-.581,2.662,2.662,0,0,1-.6-.865,2.524,2.524,0,0,1-.208-1.017,2.577,2.577,0,0,1,.208-1.028,2.675,2.675,0,0,1,.6-.868,2.645,2.645,0,0,1,.891-.571,3.043,3.043,0,0,1,2.147,0,2.7,2.7,0,0,1,1.5,1.437m-.293,1.028a2.221,2.221,0,0,0-.17-.865,2.271,2.271,0,0,0-.5-.733,2.234,2.234,0,0,0-.736-.485,2.331,2.331,0,0,0-.878-.167,2.279,2.279,0,0,0-.871.167,2.333,2.333,0,0,0-.738.485,2.3,2.3,0,0,0-.5.733,2.273,2.273,0,0,0,0,1.729,2.281,2.281,0,0,0,1.227,1.22,2.4,2.4,0,0,0,1.75,0,2.319,2.319,0,0,0,.742-.485,2.253,2.253,0,0,0,.493-.733,2.209,2.209,0,0,0,.172-.865m3.846-.39-.267-.127q-.965-.456-.965-.983a.746.746,0,0,1,.243-.587.945.945,0,0,1,.654-.219,1.141,1.141,0,0,1,.526.113.8.8,0,0,1,.345.329l.391-.213a1.247,1.247,0,0,0-.5-.477,1.764,1.764,0,0,0-1.769.176,1.082,1.082,0,0,0-.4.871,1.05,1.05,0,0,0,.278.733,3.835,3.835,0,0,0,1.118.706,2.738,2.738,0,0,1,.858.555.917.917,0,0,1,.2.6,1.022,1.022,0,0,1-.3.778,1.152,1.152,0,0,1-.825.281,1.228,1.228,0,0,1-.717-.2,1.073,1.073,0,0,1-.42-.573l-.433.21a1.63,1.63,0,0,0,.61.732,1.738,1.738,0,0,0,.937.245,1.712,1.712,0,0,0,1.19-.4,1.378,1.378,0,0,0,.438-1.072,1.3,1.3,0,0,0-.24-.813,2.755,2.755,0,0,0-.95-.667" transform="translate(0 0)" fill="#fff"></path>
  </g>
</svg>
