<?xml version="1.0" encoding="UTF-8"?>
<svg xmlns="http://www.w3.org/2000/svg" xmlns:xlink="http://www.w3.org/1999/xlink" width="76.95" height="46" viewBox="0 0 76.95 46">
  <defs>
    <clipPath id="clip-path">
      <rect id="Rectángulo_1" data-name="Rectángulo 1" width="76.95" height="46" fill="none"></rect>
    </clipPath>
  </defs>
  <g id="marca-peru" clip-path="url(#clip-path)">
    <path id="Trazado_1" data-name="Trazado 1" d="M73.243,14.777a2.657,2.657,0,0,0-2.407,1.207c-.509,1.212.065,4.957-3.448,4.648-1.835-.161-2.228-2.44-1.821-4.91a.544.544,0,0,0-.326-.413,1.973,1.973,0,0,0-1.831,1.161c-.307,1.386-1.129,4.562-4.024,3.966-2.189-.45-.83-4-2.342-5.464-2.586-.472-4.423.611-6.245,1.171C51.97,21.1,44.136,22.878,43,18.68c2.327.138,5.219-.083,5.269-2.537.056-2.758-4.016-3.474-6.44-1.756a4.636,4.636,0,0,0-1.94,2.5l-2.056-.1c-.738-5.151-1.387-9.72-3.809-12.556-5.28-6.184-25.04-5.1-30.247,0C.365,7.575-.225,13.466.065,19.851.489,29.181,2.669,39.489,5.529,46A3.843,3.843,0,0,0,7.48,44.966c-.976-2.658-.887-1.975-1.561-4.219-2.232-7.432-4.2-17.06-3.513-26.555.656-9.013,6.037-11.239,15.026-11.9,4.778-.353,11.292-.03,14.245,2.732,2.6,2.436,3.676,6.93,3.707,11.661l-1.345-.063c-.333-1.025-.513-3.047-.8-3.792C30.28,5.2,13.481,4.366,8.066,9.9c-5.583,5.7-2.4,19.033,2.147,23.417,5.359,5.169,20.509.818,24.588-3.272,2.469-2.476,2.891-6.475,3.318-11.273h.672l1.481-.005c.578,4.826,7.531,5.084,10.531,2.084a6.822,6.822,0,0,0,1.532-2.965c.2-.849,3.086-1.567,3.086-.764.329,5.611,6.2,7,8.066,1.756.056,4.58,7.309,4.207,8.586.976.595,1.792,4.465,4.4,4.879.78-2.555-.632-4.377-2-3.708-5.854m-26.734.781c-.048,1.578-1.915,1.337-3.513,1.366.011-1.753,2.576-2.793,3.513-1.366M20.945,27.266a12.97,12.97,0,0,1-3.513-.39c-4.564-1.537-4.706-9.359-1.561-12.1,2.711-2.362,9.841-2.211,11.233,1.516l-2.989-.14c-3.666-.262-7.27.342-6.878,4.283.612,6.157,13.663,6.018,12.509-2l2.62.071c.725,6.553-5.722,8.793-11.422,8.76m-.586-6.635c-.275-1.847,1.011-2.3,2.732-2.376l4.51.122c1.222,4.73-6.8,5.259-7.242,2.254m15.026,1.951c-.337,2.38-1.067,4.573-2.342,5.854C30.5,31,18.192,35.552,12.749,32.145c-5.241-3.281-7.558-17.907-1.366-21.856,6.451-4.114,20.409-1.907,20.679,6.236L29.473,16.4a1.059,1.059,0,0,1-.08-.132,10.42,10.42,0,0,0-2.4-3.252c-5.789-4.466-14.642-.554-15.416,5.269-.882,6.635,2.4,11.251,8.781,11.318,6.567.069,12.693-2.544,13.66-8.2.075-.437.076-1.814.192-2.856l1.5.041a14.281,14.281,0,0,1-.327,3.986m36.1-13.676c.813.813,0,.976,0,.976L68.3,12.094c-1.691,0-1.171-1.041-1.171-1.041L69.47,8.907a1.527,1.527,0,0,1,2.016,0" transform="translate(0 0)" fill="#fff" fill-rule="evenodd"></path>
  </g>
</svg>
