<?xml version="1.0" encoding="UTF-8"?>
<svg xmlns="http://www.w3.org/2000/svg" xmlns:xlink="http://www.w3.org/1999/xlink" width="84" height="35.279" viewBox="0 0 84 35.279">
  <defs>
    <clipPath id="clip-path">
      <rect id="Rectángulo_3" data-name="Rectángulo 3" width="84" height="35.279" fill="none"></rect>
    </clipPath>
  </defs>
  <g id="prom-peru" clip-path="url(#clip-path)">
    <path id="Trazado_3" data-name="Trazado 3" d="M9.123,0C4.268,4.19,7.44,11.875,11.748,17.576a52.335,52.335,0,0,0,24.719,17.7H23.406A82.575,82.575,0,0,1,9.3,19.687C2.813,10.238,3.468,3.39,9.123,0M4.484,2.93c-5.412,6.877-6.1,14.933-1.1,24.414h8.179C4.016,18.9.965,10.721,4.484,2.93M47.747,16.207A4.114,4.114,0,0,0,51.1,13.851a9.375,9.375,0,0,0,1.342-4.332V8.832l-.1-.961c-.248-.386-.228-.767-.639-1.183a2.171,2.171,0,0,0-1.267-.559H49.8c-1.465,0-2.579,1.364-3.177,2.305a8.18,8.18,0,0,0-1.246,4.245v1.008a3.284,3.284,0,0,0,.695,1.776,2.136,2.136,0,0,0,1.677.744m-1.414-9.3c.247-.131.462-.35.767-.512a5.3,5.3,0,0,1,.829-.4,5.864,5.864,0,0,1,2.052-.412A3.96,3.96,0,0,1,52.49,6.5l.73.825a4.03,4.03,0,0,1,.729,1.6l.1.132c-.007.533.092,1,.086,1.61a5.864,5.864,0,0,1-.311,1.428,6.915,6.915,0,0,1-1.275,2.2c-.806.9-2.915,2.461-4.527,2.461h-.775a3.646,3.646,0,0,1-2.314-1.111,6.117,6.117,0,0,1-.723-.968c-.207-.308-.307-.969-.474-1.219l-.162-1.142L43.6,11.9a6.719,6.719,0,0,1,.487-2.122c.157-.367.955-1.569.972-1.634ZM26.725,16.115a3.494,3.494,0,0,0,2.019-.949,6.433,6.433,0,0,0,1.309-1.617,11.175,11.175,0,0,0,1.551-4.3V8.42c0-1.392-1.365-2.2-2.827-2.2a7.759,7.759,0,0,0-2.22.427c-.006.007-.591,1.862-.634,2.019-.172.623-1.056,3.767-1.25,4.058,0,.5-.41,1.222-.41,2.016,0,.81.895,1.374,1.687,1.374Zm-8.39,5.359a1.626,1.626,0,0,1,1-.322,2.638,2.638,0,0,0,.994-.33,5.023,5.023,0,0,0,.821-1.786c.094-.436,1.124-3.846,1.241-4.021l2.38-7.922c-.4.03-1.476.73-1.969.73-.148,0-.035-.04-.228-.092V7.55c0-.441,2.337-1.062,2.479-1.311.113-.2.321-1.148.423-1.453a3.6,3.6,0,0,1,.563-1.313h1.231c.063.094.137.119.137.229v.092c0,.342-.555,1.562-.593,2.015l2.323-.256a5.409,5.409,0,0,1,3.037.874,3.078,3.078,0,0,1,1.253,2.589v.046a7.215,7.215,0,0,1-.73,2.931,10.422,10.422,0,0,1-1.413,2.245,7.193,7.193,0,0,1-4.742,2.52H25.95a3.352,3.352,0,0,1-1.259-.339c-.146-.091-.891-.613-.93-.623L23.1,18c-.021.478-.568,1.5-.568,2.1v.137c0,1.115,2.189.633,2.189,1.145v.046c0,.216-.1.236-.228.321-1.024,0-2.088-.058-3.054-.044a10.323,10.323,0,0,0-1.516.08,11.556,11.556,0,0,1-1.45.1c-.024,0-.1-.066-.137-.092ZM57.643,7.458c-.4.272-1.5,1.786-1.687,1.786a.206.206,0,0,1-.182-.183c0-.455,1.327-1.831,1.652-2.142A4.5,4.5,0,0,1,59.832,5.58c.476,0,.721.657.638,1.145L60.2,8.465l-.957,3.069L60.652,9.29c.76-1.14,2.644-3.71,4.378-3.71a1.351,1.351,0,0,1,1.032.475,2.942,2.942,0,0,1,.382,1.082v.6c0,.557-.217.952-.228,1.42l-.79,2.469L66.854,9.2a14.424,14.424,0,0,1,1.888-2.272A4.911,4.911,0,0,1,71.505,5.58c2.383,0,1.261,3.184.744,4.458-.24.59-1.747,4.6-1.747,4.978v.046c0,.157.118.412.274.412h.183c.473,0,1.952-1.687,2.052-2.061.234-.172.23-.55.547-.55a.176.176,0,0,1,.183.183,1.95,1.95,0,0,1-.274.641c-.272.754-2.579,3.069-3.6,3.069h-.319a.774.774,0,0,1-.775-.779V15.7c0-1.428.873-2.919,1.177-4.085.236-.906,1.285-3.086,1.285-3.93V7.229a.626.626,0,0,0-.456-.5h-.547a4.007,4.007,0,0,0-1.266.789,8.892,8.892,0,0,0-.987,1.07,29.578,29.578,0,0,0-1.669,2.446,21.369,21.369,0,0,0-1.378,2.738c-.158.443-.444.959-.593,1.466s-.2,1.247-.81,1.247H62.75c-.154,0-.319-.081-.319-.229v-.138c0-.227,1.722-5.848,1.824-6,0-.482.593-1.641.593-2.153v-.55c0-.309-.268-.687-.5-.687h-.273c-.326,0-1.026.624-1.259.8a7.853,7.853,0,0,0-.988,1.069,14.756,14.756,0,0,0-1.691,2.424c-.2.42-.5.874-.744,1.314s-.434.942-.683,1.376c-.2.341-.411,1.072-.578,1.48s-.229,1.3-.716,1.3h-.958c-.147,0-.228-.166-.228-.321v-.137c0-.361,1.072-3.623,1.26-4.185.235-.7.4-1.367.621-2.079a12.253,12.253,0,0,0,.582-2.118c.138-.218-.01-.687-.182-.687a1.269,1.269,0,0,0-.866.5M36.21,7.6c-.333.224-1.106,1.511-1.277,1.511h-.182a.665.665,0,0,1-.045-.229,7.825,7.825,0,0,1,1.425-2c.386-.386,1.446-1.294,2.132-1.294.723,0,.875.74.95,1.386a7.219,7.219,0,0,1-.4,1.866l-.8,2.6.046.019L39.311,9.2C40.068,8.1,41.419,5.58,43.1,5.58c.652,0,.838.348,1.094.733l.057.64a1.322,1.322,0,0,1-1.106,1.284.7.7,0,0,1-.746-.4,1.03,1.03,0,0,1-.124-.426c-.034-.206-.123-.214-.179-.37h-.137c-.83,0-2.908,3.558-3.344,4.383-.449.851-.858,1.684-1.277,2.565a9.653,9.653,0,0,0-.515,1.407c-.139.513-.221,1.082-.839,1.082h-.73c-.084,0-.273-.113-.273-.229v-.183c0-.284,1.133-3.881,1.308-4.366a25.8,25.8,0,0,0,1.2-4.429c0-.227-.081-.412-.319-.412a.237.237,0,0,0-.182.092Zm39.947,9.985a23.966,23.966,0,0,1,2.291-1.775,11.34,11.34,0,0,1,2.406-1.614h.273a.586.586,0,0,1,.5.55v.137c0,.6-1.947,1.415-2.476,1.681a22.313,22.313,0,0,1-2.859,1.3c-.071-.048-.137-.061-.137-.183ZM84,28.849l-.486.222c-.238.11-1.113.3-1.43.464-.141.071-1.181.687-1.185.687h-.137v-1.6h-.091v-.137c-.458.01-1.7,1.649-3.42,1.649h-.638a3.2,3.2,0,0,1-2.154-1.042,3.429,3.429,0,0,1-.989-2.167c-.091-.822,0-2.268,0-3.158V20.6c-.166-.25-.151-.463-.505-.592a2.875,2.875,0,0,0-.954-.1c-.157-.105-.274-.145-.274-.412,0-.064.062-.091.137-.091h2.964c.38,0,.274.632.274.916v5.13a5.384,5.384,0,0,0,.513,2.691,2.767,2.767,0,0,0,2.177.974h.228c1.172,0,2.782-.873,2.782-1.969V21.291c0-.63,0-1.068-.472-1.266s-1.261.065-1.261-.474c0-.106.032-.137.137-.137h3.055c.359,0,.182.786.182,1.145v7.283c0,1.057,1.074.5,1.55.733ZM63.753,21.016c0-.279.546-.369.776-.458a4.171,4.171,0,0,0,.775-.412,4.67,4.67,0,0,0,.7-.486c.183-.161.384-.523.665-.523h.091c.234,0,.137.723.137.962a4.783,4.783,0,0,0,.046,1.008c.433-.036,1.273-1.879,2.827-1.879a1.222,1.222,0,0,1,1.368,1.1v.32a.886.886,0,0,1-.867.733H70c-.535,0-.824-.916-1.323-.916h-.137c-.444,0-1.075.854-1.286,1.181a4.6,4.6,0,0,0-.355,2.117v4.443c0,1.2.766,1.021,1.687,1.237a.662.662,0,0,1,.046.229v.092a.176.176,0,0,1-.182.183h-.5l-3.785-.033-.41.033a.259.259,0,0,1-.228-.229c0-.476.5-.346.941-.429.495-.093.531-.255.746-.578l.057-.732-.012-5.544c0-.332-.137-.523-.137-.87a.928.928,0,0,0-.638-.275c-.258-.018-.73.084-.73-.182Zm-9.9.6a2.48,2.48,0,0,0-.319.962c0,.062.049.025.092.178l.409.051H56.5c1.2,0,3.463.077,3.321-1.18a2.346,2.346,0,0,0-2.5-2.027h-.456a3.434,3.434,0,0,0-1.824.687c-.391.1-.991.959-1.186,1.328m7.661,6.413c-.117.078-.593.6-.787.767a6.678,6.678,0,0,1-.9.654,5.592,5.592,0,0,1-2.418.686h-.821a5.4,5.4,0,0,1-5.062-5.359v-.366l.147-1.235c.051-.093.259-.708.337-.89a3.359,3.359,0,0,1,.461-.773,4.748,4.748,0,0,1,1.243-1.178,5.769,5.769,0,0,1,1.569-.852,6.052,6.052,0,0,1,2.08-.338h.274a3.85,3.85,0,0,1,4.1,3.848v.183c0,.452-1.568.275-2.052.275H55.044c-.864,0-1.687-.254-1.687.6,0,2.774,1.734,4.993,4.469,4.993h.137a4.024,4.024,0,0,0,2.919-1.145c.12-.089.324-.367.5-.367h.046a.176.176,0,0,1,.182.183V27.8c0,.149-.04.034-.091.229M40.5,22.436v4.81a2.916,2.916,0,0,0,.559,1.546c.475.565.877.468,1.358.774l.865.108a4.085,4.085,0,0,0,1.842-.44,3.876,3.876,0,0,0,1.294-.99,5.44,5.44,0,0,0,.862-1.424,8.438,8.438,0,0,0,.423-1.962l-.271-1.688c-.183-.276-.263-.721-.511-1.091a3.717,3.717,0,0,0-.758-.887,3.828,3.828,0,0,0-2.288-1h-.684c-1.2,0-2.69,1.09-2.69,2.244M37.259,35.262c-.082-.072-.137-.055-.137-.183V34.8c2-.467,1.687-.223,1.687-2.473q0-2.107,0-4.214V23.9a10.786,10.786,0,0,0-.055-2.052c-.155-.708-.751-.487-1.45-.651v-.183c0-.291.511-.328.757-.43a4.691,4.691,0,0,0,.785-.4c.266-.174.442-.313.684-.5.158-.126.484-.541.6-.541h.228c.1,0,.137.032.137.137V20.7c.085-.023,1.338-.855,1.672-1.023a4.828,4.828,0,0,1,2.159-.534h.638a5.454,5.454,0,0,1,3.165,1.722,5.374,5.374,0,0,1,1.35,3.5v.367a5.57,5.57,0,0,1-5.609,5.405h-.456c-1.162,0-2.071-.6-2.782-.6-.055,0-.137.095-.137.183v4.168c0,.371.413.647.728.735.393.11,1.005-.046,1.005.41a.58.58,0,0,1-.091.229Z" transform="translate(0)" fill="#fff" fill-rule="evenodd"></path>
  </g>
</svg>
