<?xml version="1.0" encoding="UTF-8"?>
<svg xmlns="http://www.w3.org/2000/svg" xmlns:xlink="http://www.w3.org/1999/xlink" width="55.969" height="48" viewBox="0 0 55.969 48">
  <defs>
    <clipPath id="clip-path">
      <rect id="Rectángulo_5" data-name="Rectángulo 5" width="55.969" height="48" fill="none"></rect>
    </clipPath>
  </defs>
  <g id="safe-travels" clip-path="url(#clip-path)">
    <path id="Trazado_5" data-name="Trazado 5" d="M32.463,24.965v.13H30.486a1.2,1.2,0,0,1,1.136-.957.856.856,0,0,1,.841.828m-.119-10.572a1.2,1.2,0,0,0-1.136.957h1.977v-.13a.856.856,0,0,0-.841-.828m-12.3,11.812-.711.065a.719.719,0,0,0-.711.726s0,.007,0,.011a.565.565,0,0,0,.562.569h.032a.822.822,0,0,0,.828-.817c0-.012,0-.025,0-.037Zm1.629-9.744-.711.065a.716.716,0,0,0-.712.721c0,.009,0,.018,0,.027a.563.563,0,0,0,.557.569h.037a.822.822,0,0,0,.828-.817c0-.011,0-.023,0-.034Zm-1.6,16.026h-.008a.334.334,0,0,0-.243.1V33.1a.475.475,0,0,0,.21.054.328.328,0,0,0,.352-.342.318.318,0,0,0-.311-.326M48,24a23.974,23.974,0,0,1-1.227,7.594H23.531v16.4A24,24,0,1,1,48,24M24.612,14.718h.89v4.3h1.837v-4.3h1.3l.376-1.557H27.331v-.555c0-.841.361-1.256,1.059-1.256a2.211,2.211,0,0,1,.763.156l.361-1.5a4.046,4.046,0,0,0-1.385-.189A2.452,2.452,0,0,0,25.5,12.481v.68h-.89Zm-2.939.332v.195l-1.165.117a1.989,1.989,0,0,0-2,1.912q0,.062,0,.124a1.884,1.884,0,0,0,1.951,1.814,1.615,1.615,0,0,0,1.525-.711,1.281,1.281,0,0,0,.905.778l1.328-1.051a1.132,1.132,0,0,1-.711-1.214V15.089c0-1.409-1.092-2.12-2.649-2.12a4.068,4.068,0,0,0-2.055.519l.335,1.435a3.257,3.257,0,0,1,1.619-.454c.633,0,.918.234.918.581M10.717,22.911H8.831V20.97l-1.889.685V22.9H5.951v1.557h.991v2.535c0,1.175.778,1.86,2.1,1.86a2.184,2.184,0,0,0,.879-.153l.169-1.435a1.128,1.128,0,0,1-.49.075c-.519,0-.778-.192-.778-.711V24.459h1.525Zm5.591-.034a1.768,1.768,0,0,0-.542-.078A1.665,1.665,0,0,0,14.1,24.208v-1.3H12.224v5.853h1.9V26.037a1.1,1.1,0,0,1,1.165-1.253,1.416,1.416,0,0,1,.568.143Zm1.2-6.338c0-1.461-.942-2.275-2.519-2.714-.625-.184-.96-.433-.96-.833s.324-.711,1.022-.711a3.552,3.552,0,0,1,1.557.428l.361-1.616a4.512,4.512,0,0,0-2.075-.467,2.513,2.513,0,0,0-2.8,2.47c0,1.263.75,2.156,2.366,2.594.763.208,1.059.454,1.059.957s-.451.828-1.162.828a4.367,4.367,0,0,1-2.379-.778l.195,1.873a4.808,4.808,0,0,0,2.3.568c2.013,0,3.046-1.009,3.038-2.6M20.532,32.8a.446.446,0,0,0-.451-.44.41.41,0,0,0-.259.085v-.575h-.148v1.316a.694.694,0,0,0,.373.109h.045a.456.456,0,0,0,.439-.472c0-.008,0-.016,0-.024m.911-.411H21.3l-.176.435c-.023.06-.062.148-.091.218-.023-.073-.054-.155-.08-.22l-.179-.433h-.158l.342.818a.71.71,0,0,1-.394.432l.1.1a.894.894,0,0,0,.456-.546Zm1.133-4.424a1.137,1.137,0,0,1-.711-1.217V24.833c0-1.409-1.092-2.119-2.649-2.119a4.069,4.069,0,0,0-2.055.519l.337,1.435a3.241,3.241,0,0,1,1.627-.451c.633,0,.918.231.918.581v.192l-1.162.117a1.986,1.986,0,0,0-2.005,1.912q0,.063,0,.127a1.883,1.883,0,0,0,1.953,1.811,1.62,1.62,0,0,0,1.525-.711,1.274,1.274,0,0,0,.9.778Zm5.713-5.051H26.532L25.7,25.144a10.868,10.868,0,0,0-.337,1.139h-.026a10.1,10.1,0,0,0-.322-1.139l-.828-2.234H22.355l2.249,5.9h1.422Zm5.957,2.145a2.429,2.429,0,0,0-2.623-2.335A2.94,2.94,0,0,0,28.571,25.8a3.078,3.078,0,0,0,3.22,3.152,4.169,4.169,0,0,0,1.86-.387l.182-1.629a3.079,3.079,0,0,1-1.616.438,1.66,1.66,0,0,1-1.73-1.02h2.869l.841-.846a2.427,2.427,0,0,0,.049-.451m.724-9.749a2.433,2.433,0,0,0-2.625-2.335,2.949,2.949,0,0,0-3.048,3.09,3.077,3.077,0,0,0,3.217,3.152,4.135,4.135,0,0,0,1.86-.387l.182-1.629a3.074,3.074,0,0,1-1.616.441,1.661,1.661,0,0,1-1.73-1.022h2.869l.841-.853a2.4,2.4,0,0,0,.052-.457m2.95,12.154c-.519-.042-.778-.3-.778-.778V19.561H35.267v7.36a1.875,1.875,0,0,0,2,2.075Zm5.064-.454c0-.983-.545-1.642-1.863-1.99-.363-.091-.519-.2-.519-.428s.21-.374.519-.374a2.734,2.734,0,0,1,1.217.322l.332-1.409a4.358,4.358,0,0,0-1.73-.348,1.961,1.961,0,0,0-2.2,1.886c0,1.022.672,1.59,1.8,1.912.327.1.519.234.519.454s-.218.4-.568.4a3.325,3.325,0,0,1-1.834-.633l.166,1.681a3.961,3.961,0,0,0,1.863.412c1.577,0,2.3-.9,2.3-1.886M26.314,37.059v.07h.048a.2.2,0,0,1,.21.159l.52,1.393h.076l.418-1.294h.006l.443,1.294h.083l.488-1.4c.041-.124.1-.153.194-.153h.045v-.067c-.083,0-.175.006-.261.006s-.191,0-.265-.006v.067h.057c.073,0,.112.022.112.092a.814.814,0,0,1-.048.2l-.309.905h-.006l-.443-1.291H27.6l-.411,1.3h-.006l-.363-1.007a.538.538,0,0,1-.032-.115c0-.067.057-.086.115-.086h.041v-.067c-.105,0-.21.006-.316.006s-.223,0-.316-.006Zm3.312-.029a.873.873,0,0,0-.912.838.846.846,0,0,0,.905.806.862.862,0,0,0,.915-.822.874.874,0,0,0-.908-.822m-.006.1a.709.709,0,0,1,.669.755.629.629,0,0,1-.657.714.725.725,0,0,1-.676-.759.63.63,0,0,1,.663-.711m.966,1.457v.067c.086,0,.2-.006.312-.006s.207,0,.316.006v-.067h-.07c-.1,0-.14-.025-.14-.236v-.424c.185.006.217.01.274.092l.284.427a.424.424,0,0,0,.443.22c.048,0,.092,0,.137,0v-.048c-.2-.013-.236-.025-.37-.226l-.325-.494a.418.418,0,0,0,.347-.418.447.447,0,0,0-.51-.411c-.108,0-.226.006-.389.006-.112,0-.226,0-.312-.006v.067h.045c.112,0,.159.035.159.182V38.4c0,.143-.048.182-.159.182h-.041ZM31,37.824v-.666a1.125,1.125,0,0,1,.153-.01.381.381,0,0,1,.411.37c0,.229-.178.322-.4.322A.621.621,0,0,1,31,37.824Zm1.221.826c.083,0,.319-.006.6-.006.214,0,.491,0,.7.006l.016-.4h-.076c-.045.255-.092.319-.491.319-.3,0-.338-.061-.338-.226V37.311c0-.143.048-.182.159-.182h.057v-.067c-.112,0-.214.006-.322.006s-.226,0-.312-.006v.067h.045c.112,0,.159.035.159.182V38.4c0,.143-.048.182-.159.182h-.045Zm1.418-.067v.067c.086,0,.2-.006.312-.006.172,0,.347.006.5.006.746,0,.979-.484.979-.81a.82.82,0,0,0-.889-.778c-.194,0-.392.006-.586.006-.112,0-.226,0-.312-.006v.067h.045c.112,0,.159.035.159.182V38.4c0,.143-.048.182-.159.182Zm.418-1.428c.105-.01.207-.019.309-.019a.761.761,0,0,1,.826.762c0,.5-.354.666-.781.666-.277,0-.354-.029-.354-.2Zm-7.239,3.462v.067c.092,0,.2-.006.319-.006s.226,0,.319.006v-.067H27.4c-.131,0-.156-.032-.156-.214V39.185h.277c.258,0,.29.137.306.312h.083v-.4c-.083,0-.481.006-.775.006-.316,0-.7,0-.775-.006v.4h.083c.013-.175.045-.312.306-.312h.277V40.4c0,.185-.026.214-.156.214h-.051Zm1.218,0v.064c.086,0,.2-.006.312-.006s.21,0,.319.006v-.067H28.6c-.1,0-.14-.026-.14-.236v-.421c.185.006.217.01.274.092l.284.427a.394.394,0,0,0,.418.21,1.2,1.2,0,0,0,.163-.019V40.62c-.2-.013-.236,0-.37-.2l-.325-.494a.418.418,0,0,0,.347-.418.447.447,0,0,0-.51-.411c-.108,0-.226.006-.389.006-.112,0-.226,0-.312-.006v.067h.045c.112,0,.159.035.159.182v1.09c0,.143-.048.182-.159.182Zm.421-1.425a1.124,1.124,0,0,1,.153-.01.381.381,0,0,1,.411.37c0,.23-.178.322-.4.322a.62.62,0,0,1-.166-.016Zm.972,1.425v.067c.061,0,.15-.006.242-.006.115,0,.214,0,.3.006v-.067h-.054c-.073,0-.1-.029-.1-.07a.56.56,0,0,1,.041-.159l.127-.354h.567l.179.4a.353.353,0,0,1,.035.112c0,.045-.048.07-.124.07h-.061v.067c.089,0,.207-.006.335-.006s.239,0,.332.006v-.067H31.2c-.112,0-.188-.086-.245-.217l-.625-1.367h-.048l-.558,1.342c-.073.188-.127.242-.261.242h-.032Zm1.09-.669h-.5l.226-.612Zm.226-.851v.067h.048c.108,0,.153.045.217.182l.622,1.371h.092l.631-1.342c.086-.182.147-.21.236-.21h.045V39.1c-.086,0-.172.006-.258.006s-.182,0-.258-.006v.067h.045c.054,0,.1.019.1.064a.485.485,0,0,1-.051.172l-.478,1.039-.449-1.017a.453.453,0,0,1-.051-.166c0-.048.035-.092.147-.092h.035V39.1c-.1,0-.22.006-.331.006S30.844,39.1,30.745,39.1Zm1.97,1.52v.073c.08,0,.3-.006.6-.006.265,0,.523,0,.669.006.016-.137.032-.268.048-.4h-.067c-.038.249-.147.319-.555.319h-.067c-.156,0-.21-.035-.21-.169V39.9h.233c.274,0,.277.048.29.159h.067c0-.045-.006-.118-.006-.2s0-.169.006-.22h-.067c-.006.131-.016.179-.312.179h-.214v-.631h.233c.43,0,.446.137.472.293H33.9c-.013-.121-.016-.242-.022-.379-.172,0-.287.006-.574.006-.242,0-.523,0-.6-.006v.067h.045c.112,0,.159.035.159.182v1.09c0,.143-.048.182-.159.182h-.035Zm1.422,0v.067c.086,0,.322-.006.606-.006.214,0,.491,0,.7.006l.013-.4h-.077c-.045.255-.092.319-.491.319-.3,0-.338-.061-.338-.226V39.345c0-.143.048-.182.159-.182h.057V39.1c-.115,0-.217.006-.325.006s-.226,0-.312-.006v.067h.045c.112,0,.159.035.159.182v1.09c0,.143-.048.182-.159.182h-.041Zm2.709-.781V39.9c.131,0,.207.016.207.153A.675.675,0,0,1,37,40.32l-.516-.516c.261-.15.4-.249.4-.421a.359.359,0,0,0-.392-.319.424.424,0,0,0-.437.411.538.538,0,0,0,.23.382c-.23.131-.357.265-.357.44a.461.461,0,0,0,.516.414.7.7,0,0,0,.507-.175l.15.147c.07,0,.143-.006.252-.006.061,0,.128,0,.178.006v-.067c-.214,0-.274-.019-.465-.236a1.105,1.105,0,0,0,.089-.3c.022-.163.045-.182.214-.182v-.067c-.064,0-.143.006-.3.006-.1,0-.15,0-.217-.006Zm.061.644a.46.46,0,0,1-.331.14.425.425,0,0,1-.449-.382.364.364,0,0,1,.207-.332Zm-.475-1.329a.283.283,0,0,1,.28.29c0,.147-.112.22-.258.319-.029-.026-.249-.236-.258-.351a.239.239,0,0,1,.236-.258m-9.614,3.5v.067c.092,0,.2-.006.319-.006s.226,0,.319.006v-.067H27.4c-.131,0-.156-.025-.156-.21V41.225h.277c.258,0,.29.137.306.312h.083v-.4c-.083,0-.481.006-.775.006-.316,0-.7,0-.775-.006v.4h.083c.013-.172.045-.312.306-.312h.277v1.218c0,.182-.026.21-.156.21h-.051ZM28.842,41.1a.873.873,0,0,0-.912.838.846.846,0,0,0,.905.806.862.862,0,0,0,.915-.822.874.874,0,0,0-.908-.822m-.006.1a.71.71,0,0,1,.669.752.629.629,0,0,1-.657.714.725.725,0,0,1-.676-.759.629.629,0,0,1,.663-.708m1.54,0v-.064c-.1,0-.207.006-.309.006s-.214,0-.312-.006V41.2H29.8c.089,0,.156.029.156.172v.7a.592.592,0,0,0,.233.529.773.773,0,0,0,.472.147.784.784,0,0,0,.513-.182.753.753,0,0,0,.191-.555v-.577c0-.21.064-.242.15-.242h.038v-.067c-.089,0-.172.006-.261.006s-.188,0-.255-.006v.067h.051c.061,0,.089.01.115.061a2.51,2.51,0,0,1,.048.58v.236a.657.657,0,0,1-.118.4.635.635,0,0,1-.456.191.476.476,0,0,1-.4-.179.518.518,0,0,1-.1-.36c0-.233.006-.469.01-.7,0-.185.057-.217.15-.22h.045Zm1.316,1.457v.061c.086,0,.2-.006.312-.006s.21,0,.316.006v-.067h-.07c-.1,0-.14-.025-.14-.236V41.99c.185.006.217.01.274.092l.284.427a.424.424,0,0,0,.443.22c.048,0,.089,0,.137,0v-.048c-.2-.013-.236-.026-.37-.226l-.325-.494a.418.418,0,0,0,.347-.418.447.447,0,0,0-.51-.411c-.105,0-.223.006-.386.006-.112,0-.226,0-.312-.006V41.2h.045c.115,0,.163.038.163.185v1.09c0,.143-.051.182-.163.182Zm.421-.759v-.666a1.125,1.125,0,0,1,.153-.01.381.381,0,0,1,.411.37c0,.229-.179.322-.4.322A.621.621,0,0,1,32.112,41.895Zm1.2.826c.086,0,.2-.006.312-.006s.21,0,.312.006v-.067h-.045c-.112,0-.159-.038-.159-.182v-1.09c0-.147.048-.185.159-.185h.045V41.13c-.1,0-.207.006-.312.006s-.226,0-.312-.006V41.2h.045c.115,0,.163.038.163.185v1.09c0,.143-.051.182-.163.182h-.045Zm1.814-1.183v-.37a2.448,2.448,0,0,0-.456-.061.488.488,0,0,0-.542.437.433.433,0,0,0,.316.382l.265.115c.134.061.3.134.3.331s-.178.3-.389.3a.4.4,0,0,1-.414-.347h-.073l.01.367a1.857,1.857,0,0,0,.437.054c.4,0,.606-.2.606-.481,0-.223-.188-.344-.363-.418l-.223-.092c-.2-.086-.274-.175-.274-.306,0-.147.131-.265.331-.265a.342.342,0,0,1,.389.351h.08Zm.239,1.116v.064c.073,0,.153-.006.261-.006s.2,0,.258.006V42.65h-.035c-.134,0-.156-.073-.156-.316V41.42H35.7l.669,1.32h.051l.653-1.447h0v1.125c0,.2-.025.236-.163.236h-.035v.067c.083,0,.188-.006.316-.006s.233,0,.312.006v-.067h-.048c-.14,0-.166-.038-.169-.261-.006-.338-.016-.9-.016-1.01,0-.159.076-.185.188-.185h.032V41.13c-.073,0-.15.006-.223.006s-.147,0-.223-.006l-.593,1.31-.669-1.31c-.029,0-.121.006-.194.006s-.134,0-.21-.006V41.2h.045c.131,0,.179.035.179.185,0,.322-.019.634-.026.943-.01.274-.051.328-.169.328Zm-7.312.606a1,1,0,0,1-.121-.032,2.162,2.162,0,0,0-.558-.092.878.878,0,0,0-.905.88c0,.449.376.768.928.768a.967.967,0,0,0,.669-.255v-.169h-.016a.808.808,0,0,1-.673.332.734.734,0,0,1-.013-1.46.613.613,0,0,1,.641.335h.038Zm1.03-.121a.871.871,0,0,0-.912.838.846.846,0,0,0,.905.806.862.862,0,0,0,.915-.822.874.874,0,0,0-.908-.822m-.006.092a.712.712,0,0,1,.669.752.629.629,0,0,1-.657.714.725.725,0,0,1-.676-.759.629.629,0,0,1,.663-.708m1.54,0v-.07c-.1,0-.207.006-.309.006s-.214,0-.312-.006v.067h.045c.089,0,.156.029.156.172v.7a.592.592,0,0,0,.233.529.773.773,0,0,0,.472.147.785.785,0,0,0,.513-.182.753.753,0,0,0,.191-.555v-.571c0-.21.064-.242.15-.242h.035v-.067c-.089,0-.172.006-.261.006s-.188,0-.255-.006v.067h.051c.061,0,.089.01.115.061a2.51,2.51,0,0,1,.048.58v.236a.657.657,0,0,1-.118.4.635.635,0,0,1-.456.191.476.476,0,0,1-.4-.179.523.523,0,0,1-.1-.36c0-.233.006-.469.01-.7,0-.185.057-.217.15-.22Zm1.262,1.453v.067c.076,0,.175-.006.268-.006s.188,0,.268.006v-.067h-.048c-.115,0-.153-.054-.159-.236-.01-.347-.016-.689-.016-1.036H32.2L33.4,44.773h.073l.045-1.3c.006-.217.076-.242.153-.242h.038v-.067c-.086,0-.175.006-.261.006s-.188,0-.265-.006v.067h.029c.131,0,.166.051.172.309l.016.915h0l-1.147-1.291c-.061,0-.124.006-.191.006s-.147,0-.214-.006v.067h.067c.121,0,.175.035.175.194,0,.261,0,.685-.013.979-.01.236-.032.284-.159.284h-.041Zm3.433-1.428a1.177,1.177,0,0,1-.121-.032,2.162,2.162,0,0,0-.558-.092.878.878,0,0,0-.905.88c0,.449.376.768.928.768a.967.967,0,0,0,.669-.255v-.169h-.016a.808.808,0,0,1-.673.332.734.734,0,0,1-.01-1.46.609.609,0,0,1,.641.335H35.3Zm.163,1.492c.086,0,.2-.006.312-.006s.21,0,.312.006v-.067h-.045c-.112,0-.159-.038-.159-.182V43.415c0-.147.048-.185.159-.185H36.1v-.067c-.1,0-.2.006-.312.006s-.226,0-.312-.006v.067h.045c.112,0,.159.038.159.185v1.09c0,.143-.048.182-.159.182h-.045Zm.826-.064v.067c.086,0,.322-.006.606-.006.214,0,.491,0,.7.006l.016-.4h-.076c-.045.255-.092.319-.491.319-.3,0-.338-.057-.338-.226V43.415c0-.147.051-.185.163-.185h.057v-.067c-.115,0-.217.006-.325.006s-.226,0-.312-.006v.067h.045c.112,0,.159.038.159.185v1.09c0,.143-.048.182-.159.182H36.3Zm1.2-8.533a1.571,1.571,0,0,1-.185.347L35.88,38.643v-.58l1.173-1.747.006-.01a1.074,1.074,0,0,0,.137-.261.935.935,0,0,0,.054-.3.882.882,0,0,0-.15-.488.862.862,0,0,0-.382-.316.9.9,0,0,0-.338-.067.886.886,0,0,0-.319.061.793.793,0,0,0-.185.1v-.373l.064-.029a1.186,1.186,0,0,1,.44-.083,1.2,1.2,0,0,1,1.1.73,1.189,1.189,0,0,1,.092.465,1.2,1.2,0,0,1-.073.411m-.43-.411a.692.692,0,1,0-.692.692.693.693,0,0,0,.692-.692m18.9-3.868V48H23.906V31.875H55.969Zm-16.125.188H24.094v15.75h15.75Zm15.938,0H40.031v15.75h15.75Zm-12.69,11.4h.043v-.335h.147v-.044h-.337v.044h.147Zm.66,0h.043v-.166h.135l.087.166h.048l-.087-.167a.1.1,0,0,0,.083-.107.1.1,0,0,0-.109-.105h-.2Zm.043-.21v-.125h.168a.058.058,0,0,1,.052.063c0,.04-.023.062-.066.062Zm.72.21h.047l.046-.1H44.8l.047.1h.048l-.173-.379h-.036Zm.113-.146.076-.168.077.168Zm.878.146.169-.379h-.048l-.134.3-.134-.3H45.31l.168.379Zm.669,0h.288v-.044h-.245V43.28h.14v-.044h-.14v-.111h.231v-.044h-.274Zm.805,0h.271v-.044h-.227v-.335H46.98Zm1.391,0h.047l.046-.1h.193l.047.1h.047l-.173-.379h-.036Zm.113-.146.076-.168.077.168Zm1.027.043a.128.128,0,0,1-.114.068.156.156,0,0,1,0-.308.127.127,0,0,1,.116.072l.036-.028a.173.173,0,0,0-.153-.089.2.2,0,0,0,0,.4.173.173,0,0,0,.158-.1v-.114h-.138V43.3h.1Zm.586.1h.288v-.044H50.14V43.28h.14v-.044h-.14v-.111h.231v-.044H50.1Zm.806,0h.043v-.283l.227.283h.022v-.379h-.043v.283l-.226-.283H50.9Zm1.127-.121a.136.136,0,0,1-.125.086.155.155,0,0,1,0-.308.127.127,0,0,1,.116.072l.036-.028a.173.173,0,0,0-.153-.089.2.2,0,0,0,0,.4.173.173,0,0,0,.16-.1Zm.638.121h.043v-.189l.158-.19h-.055l-.125.149-.125-.15h-.054l.157.189Zm-10.436-.8h.224v-.58h.106a.326.326,0,0,0,.25-.09.372.372,0,0,0,.083-.263v-.14a.372.372,0,0,0-.083-.263.326.326,0,0,0-.25-.09h-.33Zm.224-.784v-.438h.106a.105.105,0,0,1,.083.031.154.154,0,0,1,.027.1v.169a.154.154,0,0,1-.027.1.105.105,0,0,1-.083.031Zm.766.784h.611v-.2h-.387v-.438h.307v-.2h-.307v-.377h.387v-.2h-.611Zm.943,0h.224v-.611h.077a.134.134,0,0,1,.109.039.221.221,0,0,1,.032.136v.261a.937.937,0,0,0,0,.11.319.319,0,0,0,.016.065h.228a.247.247,0,0,1-.02-.074.938.938,0,0,1,0-.1v-.251a.5.5,0,0,0-.034-.2.175.175,0,0,0-.115-.1v0q.147-.059.147-.281v-.088a.286.286,0,0,0-.332-.328h-.332Zm.224-.814v-.407h.1a.1.1,0,0,1,.087.035.181.181,0,0,1,.027.112v.11a.164.164,0,0,1-.034.116.134.134,0,0,1-.1.035Zm.878.743a.336.336,0,0,0,.582-.266V41.23h-.216v1.1a.155.155,0,0,1-.03.106.126.126,0,0,1-.169,0,.156.156,0,0,1-.03-.106v-1.1H45.18v1.088a.378.378,0,0,0,.086.266m1.015,0a.375.375,0,0,0,.491,0,.367.367,0,0,0,.084-.259v-.2h-.212v.218q0,.13-.112.13t-.112-.13v-.8q0-.132.112-.132t.112.132v.165h.212V41.56a.368.368,0,0,0-.084-.259.374.374,0,0,0-.491,0,.368.368,0,0,0-.084.259v.766a.367.367,0,0,0,.084.259m.988,0a.387.387,0,0,0,.505,0,.373.373,0,0,0,.088-.265v-.749a.373.373,0,0,0-.088-.265.387.387,0,0,0-.505,0,.373.373,0,0,0-.088.265v.75a.373.373,0,0,0,.088.265m.368-.251q0,.14-.116.14t-.116-.14v-.778q0-.14.116-.14t.116.14v.778m.579.324h.2V41.615h0l.269,1.041h.229V41.23h-.2v.853h0L48.5,41.23h-.281Zm1.073,0H49.9v-.2h-.387v-.438h.307v-.2h-.307v-.377H49.9v-.2h-.611Zm.887,0h.212l.167-.5h0l.163.5h.236l-.259-.729.246-.7h-.212l-.155.46h0l-.151-.46h-.236l.246.7Zm1.092,0h.223V41.231h-.224Zm.665-.073a.387.387,0,0,0,.505,0,.374.374,0,0,0,.088-.265v-.749a.373.373,0,0,0-.088-.265.387.387,0,0,0-.505,0,.373.373,0,0,0-.088.265v.75a.373.373,0,0,0,.088.265m.369-.251q0,.14-.116.14t-.116-.14v-.778q0-.14.116-.14t.116.14v.778m.579.324h.2V41.615h0l.268,1.041h.23V41.23h-.2v.853h0l-.218-.853h-.281Zm-2.317-4.278c-.009-.028-.063-.055-.148-.046a.967.967,0,0,0-.436.015l-.249.069a.915.915,0,0,1-.739-.075,1.7,1.7,0,0,0-.286-.1.541.541,0,0,0-.474.1l.7.461a.74.74,0,0,1-.735.159.277.277,0,0,0-.308.03l.233.17a1.489,1.489,0,0,1-1.422-.285A1.059,1.059,0,0,1,46.425,38l.127.338A1.642,1.642,0,0,1,48.143,36.9a1.832,1.832,0,0,1,1.769,1.186c-.007-.042-.01-.085-.021-.126a2.061,2.061,0,0,0-2.305-1.527,1.943,1.943,0,0,0-1.534,1.2,1.881,1.881,0,0,0-.126.578.988.988,0,0,0,.764,1.159c.044.015.088.026.133.037a2.772,2.772,0,0,0,1.626-.178c.342-.126.684-.252,1.027-.376l.489-.174.4-.142c.093-.034.221-.081.2-.152m-.841.4-.445.207c0,.018,0,.036,0,.054.1.037.217.124.3.1.136-.043.154-.2.15-.359m-.314,1.078.019.014a2.066,2.066,0,0,1-.271.244l-.065.021c-.05.014-.1.021-.153.032l0,.009c.014.007.028.021.041.02l.073-.005a2.041,2.041,0,0,1-1.125.336h-.029a2.051,2.051,0,0,1-1.474-.63c-.032-.033-.063-.067-.094-.1a.222.222,0,0,1-.018-.028l.024.005.015.018a.454.454,0,0,0,.312.066s.267.017.28.183h0l.024,0a.237.237,0,0,1,.174.088.38.38,0,0,1,.312,0A.3.3,0,0,1,47.595,40a.311.311,0,0,1,.053-.016.121.121,0,0,1,.063-.081.219.219,0,0,1,.067-.024,1.588,1.588,0,0,1,.139-.208c.055-.066.113-.113.148-.072l.026.03c.062.071.089.093.127.063l.028-.024a.181.181,0,0,1,.054-.042c.045-.024.232-.58.405-.253a.366.366,0,0,1,.046.046.357.357,0,0,1,.037.05.272.272,0,0,0,.076.086,1.21,1.21,0,0,1,.446.212.8.8,0,0,0,.1.1m-1.274.286a.074.074,0,0,0,.047-.031c.042-.063.081-.127.121-.192s.041-.065-.014-.119c0,0,0,0-.011,0l-.049.059.063.013c-.054.031-.113,0-.153.04l.1,0a.071.071,0,0,1,0,.011l-.034.006c-.026,0-.052,0-.077,0a.117.117,0,0,0-.037.021l.006.015h.1v.012c-.04,0-.08,0-.12,0s-.044.012-.05.047h.132v.014a.48.48,0,0,1-.077,0c-.078-.013-.122.028-.16.1.075,0,.141,0,.207,0m.339-.281a.057.057,0,0,0-.034-.066c-.028-.013-.033.02-.047.035a.017.017,0,0,0,0,.008c.009.021.056-.011.047.032l-.061.01V39.9c.026.005.061,0,.053.045-.027,0-.053-.018-.078.011.034.011.077.008.066.051-.025,0-.053-.02-.069-.011s-.032.04-.054.07l.108.007-.011.061c-.029-.042-.063-.057-.087-.035a.268.268,0,0,0-.055.08c-.012.025,0,.044.031.045s.067,0,.1,0,.041-.012.045-.039c.015-.106.03-.213.048-.319m.068-.151-.005.013a.268.268,0,0,0,.118.072.331.331,0,0,1,.156.066.247.247,0,0,0,.193.027.31.31,0,0,0-.174-.092.913.913,0,0,1-.1-.026c-.024-.006-.05-.007-.074-.013a.29.29,0,0,1-.044-.019l-.066-.028m.409.263c-.041-.052-.067-.062-.108-.044.03.053.056.065.108.044m-.17-.071c-.032-.049-.063-.063-.1-.047.024.055.059.071.1.047m-.148.315a.342.342,0,0,0,.164-.022.632.632,0,0,0-.052-.075.122.122,0,0,0-.059-.04c-.016,0-.037.017-.056.027l-.014-.048.094,0c-.019-.071-.066-.1-.114-.055-.01-.035-.01-.035.048-.058-.02-.022-.025-.023-.071-.009-.019-.049.03-.034.044-.048-.01-.037-.063.008-.069-.041l.054-.006a.1.1,0,0,0-.02-.026.348.348,0,0,0-.043-.022c-.008.019-.027.04-.023.056.03.117.064.232.1.348,0,.01.013.024.02.024m.122-.276c.029.055.054.067.1.049-.026-.05-.064-.067-.1-.049m.073.115c.035.033.23-.022.286-.078-.014-.026-.029-.036-.06-.019-.052.028-.106.05-.16.074-.021.009-.042.015-.066.023m.357.008c.015-.008.036-.016.021-.04a.037.037,0,0,0,0-.009.035.035,0,0,0-.049-.007.991.991,0,0,1-.13.055c-.048.016-.1.027-.147.04l0,.009c.012.006.024.018.036.017a.712.712,0,0,0,.278-.065" fill="#fff"></path>
  </g>
</svg>
