<?xml version="1.0" encoding="UTF-8"?>
<svg xmlns="http://www.w3.org/2000/svg" xmlns:xlink="http://www.w3.org/1999/xlink" width="56.33" height="48" viewBox="0 0 56.33 48">
  <defs>
    <clipPath id="clip-path">
      <rect id="Rectángulo_2" data-name="Rectángulo 2" width="56.33" height="48" fill="none"></rect>
    </clipPath>
  </defs>
  <g id="min-cetur" clip-path="url(#clip-path)">
    <path id="Trazado_2" data-name="Trazado 2" d="M33.871,22.43H37.1v9a1.228,1.228,0,0,0,.1.55c.768,1.822,3.43,1.641,5.057-.07a.257.257,0,0,0,.1-.22V22.43h3.233V36.1H42.362V34.893a9.454,9.454,0,0,1-3.693,1.392,4.69,4.69,0,0,1-4.718-4.115,5.514,5.514,0,0,1-.08-1.141ZM47.1,36.1h3.233V29.048a4.528,4.528,0,0,1,.518-2.642,2.523,2.523,0,0,1,3.975-.731l1.508-2.893a5.478,5.478,0,0,0-6,.531V22.43H47.1ZM26.007,19.85v2.643H24.4v2.652h1.612v6.576a6.388,6.388,0,0,0,.136,1.63,3.591,3.591,0,0,0,.974,1.712,4.9,4.9,0,0,0,3.469,1.165,6.1,6.1,0,0,0,2.819-.553V32.5a3.469,3.469,0,0,1-2.164.8c-.974.026-1.973-.4-2-1.525V25.145h3.865V22.492H29.241V18.619ZM.431,29.219a7.146,7.146,0,0,0,11.78,5.441l-1.462-2.58a3.829,3.829,0,0,1-2.9,1.358,4.228,4.228,0,0,1,0-8.437,3.82,3.82,0,0,1,2.836,1.285l1.425-2.593A7.147,7.147,0,0,0,.431,29.219m11.159.01a7.16,7.16,0,0,0,7.292,7.017A7.436,7.436,0,0,0,23.6,34.575l-1.4-2.434A4.708,4.708,0,0,1,18.762,33.4a3.279,3.279,0,0,1-3.476-3.123h9.39a7.865,7.865,0,0,0,.2-3.584,6.327,6.327,0,0,0-3.805-4.163,7.565,7.565,0,0,0-2.189-.322,7.16,7.16,0,0,0-7.292,7.017m3.721-1.422h6.522a3.445,3.445,0,0,0-3.261-2.783,3.445,3.445,0,0,0-3.261,2.783m-12-8.983L5.277,9.419l3.639,9.405h1.112l3.639-9.405,1.966,9.405h3.312L15.129.25H13.253L9.472,11.9,5.691.25H3.815L0,18.824ZM22.7,5.213H17.713V7.994h1.749v10.83H22.7V5.213ZM19.181,1.968A1.968,1.968,0,1,0,21.149,0a1.969,1.969,0,0,0-1.968,1.968m17.025,8.257a5.522,5.522,0,0,0-.081-1.142,5.018,5.018,0,0,0-1.466-2.856,5.57,5.57,0,0,0-7.336.109l-.536-1.181h-2.3v13.67h3.234V9.106c0-.156-.009-.182.1-.3,1.627-1.71,4.288-1.36,5.057.461a1.228,1.228,0,0,1,.1.55v9h3.234Zm2.057-.347c-.268,2.83-.374,5.706-.364,8.5a.847.847,0,0,0,.355.851c1.35,1.241,3.569.979,5.071.079.542-.325.5-.6.449-1.335-.173-2.567-.391-5.18-.7-7.883a1.2,1.2,0,0,0-.547-1.017,5.669,5.669,0,0,0-2.715-1.208c-1.5-.16-1.451.961-1.55,2.009m9.646-1.158a76.283,76.283,0,0,0,.174,8.456c.048.532.044,1.109.584,1.406a3.871,3.871,0,0,0,1.661.189l1.379.039c.428.012.865.094,1.207-.232a6.789,6.789,0,0,0,1.027-2.054,21.01,21.01,0,0,0,.782-2.221c.436-1.5,1.161-3.875.545-5.384-.4-.968-1.039-1.063-1.94-1.239l-1.391-.272-1.646-.321a3.166,3.166,0,0,0-1.842-.12c-.632.308-.527,1.173-.54,1.754M32.914,40.83a1.617,1.617,0,0,0,1.477,1.727,1.352,1.352,0,0,0,.957-.412l-.3-.623a.753.753,0,0,1-.6.328,1.044,1.044,0,0,1,0-2.038.747.747,0,0,1,.586.31l.294-.627a1.348,1.348,0,0,0-.936-.391,1.617,1.617,0,0,0-1.477,1.726m-18.581-.078.363-.373,0,0a1.067,1.067,0,0,0-.714-.328.754.754,0,0,0-.532.2.66.66,0,0,0-.214.5.674.674,0,0,0,.133.41,1.318,1.318,0,0,0,.459.338,1.292,1.292,0,0,1,.324.2.189.189,0,0,1,.049.13.207.207,0,0,1-.079.159.3.3,0,0,1-.207.074.5.5,0,0,1-.354-.182l-.359.389a.931.931,0,0,0,.3.217,1.009,1.009,0,0,0,.427.094.809.809,0,0,0,.577-.221.725.725,0,0,0,.233-.542A.672.672,0,0,0,14.6,41.4a1.419,1.419,0,0,0-.483-.348,1.135,1.135,0,0,1-.3-.2.185.185,0,0,1-.053-.121.151.151,0,0,1,.058-.116.214.214,0,0,1,.151-.056.569.569,0,0,1,.36.181Zm26.076,4.433.363-.372,0,0a1.065,1.065,0,0,0-.714-.329.756.756,0,0,0-.532.2.66.66,0,0,0-.214.5.676.676,0,0,0,.133.41,1.317,1.317,0,0,0,.459.337,1.294,1.294,0,0,1,.324.2.19.19,0,0,1,.049.13.2.2,0,0,1-.079.159.3.3,0,0,1-.206.074.508.508,0,0,1-.355-.181l-.359.389a.952.952,0,0,0,.3.217,1.013,1.013,0,0,0,.427.094.809.809,0,0,0,.577-.221.726.726,0,0,0,.233-.542.675.675,0,0,0-.139-.415,1.432,1.432,0,0,0-.483-.348,1.146,1.146,0,0,1-.305-.2.187.187,0,0,1-.053-.121.151.151,0,0,1,.058-.117A.214.214,0,0,1,40.041,45a.57.57,0,0,1,.36.182ZM4.924,42.557l.362-1.733.671,1.733h.2l.671-1.733L7.2,42.557H7.8l-.7-3.423H6.756l-.7,2.147-.7-2.147H5.017l-.7,3.423Zm3.992-2.508H8v.513H8.32v2h.6V40.049Zm-.648-.6a.363.363,0,1,0,.363-.363.363.363,0,0,0-.363.363m4.514.6h-.918v.513h.323v2h.6V40.049Zm-.647-.6a.362.362,0,1,0,.362-.363.363.363,0,0,0-.362.363m37.563.6h-.918v.513H49.1v2h.6V40.049Zm-.648-.6a.363.363,0,1,0,.363-.363.363.363,0,0,0-.363.363m-26.869.6h-.918v.513h.322v2h.6V40.049Zm-.647-.6a.363.363,0,1,0,.363-.363.363.363,0,0,0-.363.363m.229,5.054h-.918v.512h.322v2h.6V44.5Zm-.648-.6a.363.363,0,1,0,.363-.363.363.363,0,0,0-.363.363m17.752.6h-.918v.512h.322v2h.6V44.5Zm-.648-.6a.363.363,0,1,0,.363-.363.363.363,0,0,0-.363.363M11.463,40.972a1.026,1.026,0,0,0-.014-.21.93.93,0,0,0-.27-.527,1.027,1.027,0,0,0-1.352.02l-.1-.217H9.3v2.518h.6V40.766c0-.029,0-.033.018-.055a.563.563,0,0,1,.932.085.229.229,0,0,1,.018.1v1.658h.6Zm8.088,1.584h.6v-1.3a.834.834,0,0,1,.1-.487.465.465,0,0,1,.732-.135l.278-.533a1.008,1.008,0,0,0-1.105.1v-.163h-.6Zm-.419,4.456h.6v-1.3a.833.833,0,0,1,.1-.487.465.465,0,0,1,.732-.135l.278-.533a1.011,1.011,0,0,0-1.106.1v-.163h-.6Zm17.1,0h.6v-1.3a.834.834,0,0,1,.1-.487.465.465,0,0,1,.732-.135l.278-.533a1.01,1.01,0,0,0-1.105.1v-.163h-.6Zm-11.515,0h.6v-1.3a.833.833,0,0,1,.1-.487.465.465,0,0,1,.732-.135l.278-.533a1.011,1.011,0,0,0-1.106.1v-.163h-.6Zm20.1-4.456h.6v-1.3a.834.834,0,0,1,.1-.487.465.465,0,0,1,.732-.135l.278-.533a1.009,1.009,0,0,0-1.106.1v-.163h-.6ZM15.285,39.539v.487h-.3v.489h.3v1.212a1.2,1.2,0,0,0,.025.3.666.666,0,0,0,.18.316.906.906,0,0,0,.639.214,1.122,1.122,0,0,0,.519-.1V41.87a.637.637,0,0,1-.4.148c-.179,0-.364-.073-.369-.281V40.514h.712v-.489h-.712v-.714ZM14.9,43.995v.487h-.3v.489h.3v1.212a1.169,1.169,0,0,0,.025.3.658.658,0,0,0,.179.316.9.9,0,0,0,.639.214,1.12,1.12,0,0,0,.52-.1v-.585a.641.641,0,0,1-.4.148c-.179,0-.363-.073-.368-.281V44.97h.712v-.489H15.5v-.714Zm1.774-2.731a1.319,1.319,0,0,0,1.343,1.293,1.369,1.369,0,0,0,.87-.308l-.259-.448a.868.868,0,0,1-.633.232.6.6,0,0,1-.64-.575h1.73a1.447,1.447,0,0,0,.037-.661,1.166,1.166,0,0,0-.7-.767,1.393,1.393,0,0,0-.4-.059,1.319,1.319,0,0,0-1.343,1.293M17.359,41h1.2a.608.608,0,0,0-1.2,0m-1.1,4.719A1.319,1.319,0,0,0,17.6,47.013a1.369,1.369,0,0,0,.87-.308l-.259-.448a.867.867,0,0,1-.633.233.6.6,0,0,1-.64-.575h1.73a1.447,1.447,0,0,0,.037-.661,1.165,1.165,0,0,0-.7-.767,1.389,1.389,0,0,0-.4-.059,1.319,1.319,0,0,0-1.344,1.293m.686-.262h1.2a.609.609,0,0,0-1.2,0m11.947-4.194a1.319,1.319,0,0,0,1.344,1.293,1.369,1.369,0,0,0,.87-.308l-.259-.448a.869.869,0,0,1-.633.232.6.6,0,0,1-.64-.575H31.3a1.448,1.448,0,0,0,.037-.661,1.166,1.166,0,0,0-.7-.767,1.389,1.389,0,0,0-.4-.059,1.319,1.319,0,0,0-1.344,1.293M29.573,41h1.2a.609.609,0,0,0-1.2,0m12.452.262a1.319,1.319,0,0,0,1.344,1.293,1.369,1.369,0,0,0,.87-.308l-.259-.448a.87.87,0,0,1-.633.232.6.6,0,0,1-.64-.575h1.73a1.455,1.455,0,0,0,.037-.661,1.166,1.166,0,0,0-.7-.767,1.389,1.389,0,0,0-.4-.059,1.319,1.319,0,0,0-1.344,1.293M42.711,41h1.2a.609.609,0,0,0-1.2,0m-20.258.262a1.261,1.261,0,1,0,1.26-1.314,1.289,1.289,0,0,0-1.26,1.314m.613,0a.659.659,0,1,0,.647-.787.728.728,0,0,0-.647.787M22.035,45.72A1.261,1.261,0,1,0,23.3,44.406a1.289,1.289,0,0,0-1.261,1.314m.613,0a.659.659,0,1,0,.647-.787.728.728,0,0,0-.647.787m22.2,0a1.261,1.261,0,1,0,1.261-1.314,1.289,1.289,0,0,0-1.261,1.314m.613,0a.659.659,0,1,0,.647-.787.728.728,0,0,0-.647.787m-9.838-4.456a1.261,1.261,0,1,0,1.26-1.314,1.289,1.289,0,0,0-1.26,1.314m.613,0a.659.659,0,1,0,.647-.787.727.727,0,0,0-.647.787m13.687,0a1.261,1.261,0,1,0,1.26-1.314,1.289,1.289,0,0,0-1.26,1.314m.613,0a.659.659,0,1,0,.647-.787.727.727,0,0,0-.647.787m-10.179-.27v-.122a.047.047,0,0,1,.017-.04c.282-.315.744-.348.878-.013a.238.238,0,0,1,.018.1v1.658h.561V40.994a1.064,1.064,0,0,0-.014-.21A.83.83,0,0,0,41,40.025a1.173,1.173,0,0,0-.784.4.782.782,0,0,0-.69-.4,1.585,1.585,0,0,0-.641.256v-.222h-.562v2.518h.562V40.871a.046.046,0,0,1,.017-.04c.282-.315.744-.348.878-.013a.212.212,0,0,1,.018.076v0h0v0h0v.009h0v1.666h.561Zm2.8,4.434v-.122a.049.049,0,0,1,.017-.041c.283-.315.744-.348.878-.013a.245.245,0,0,1,.017.1v1.659h.562V45.428a1.111,1.111,0,0,0-.014-.21.83.83,0,0,0-.819-.758,1.174,1.174,0,0,0-.785.395.778.778,0,0,0-.689-.395,1.586,1.586,0,0,0-.642.256v-.222h-.561v2.519h.561V45.306a.05.05,0,0,1,.017-.041c.282-.315.744-.348.878-.013a.208.208,0,0,1,.018.076h0v.007h0v.014h0v1.659h.562Zm3.2-4.188a1.317,1.317,0,0,0,2.171,1l-.27-.475a.7.7,0,0,1-.535.25.779.779,0,0,1,0-1.554.7.7,0,0,1,.523.237l.263-.478a1.316,1.316,0,0,0-2.152,1.018m-12.7,4.8a1.025,1.025,0,0,0,.015.21.864.864,0,0,0,.869.758,1.745,1.745,0,0,0,.681-.257v.222h.6V44.459h-.6v1.707a.048.048,0,0,1-.018.04c-.3.315-.79.348-.932.013a.227.227,0,0,1-.019-.1V44.459h-.6Zm-2.307-2.472v.6h.969v2.845h.6V44.168h.969v-.6H31.359ZM28.394,46.5c.078.182.133.235.015.413a1.042,1.042,0,0,1-.73.474L27.8,48a1.968,1.968,0,0,0,.97-.625,4.316,4.316,0,0,0,.551-1.09l.774-1.793h-.6l-.689,1.6-.689-1.6h-.6Zm-15.366-.785-.969,1.26h.6l.671-.872.671.872h.6l-.969-1.26.969-1.259H14l-.671.872-.671-.872h-.6Zm-3.2-1.58v2.839h2.193v-.6h-1.6v-.824h1.2v-.6h-1.2v-.824h1.6v-.6H9.832ZM28.68,39.053h-.6v.975a1.2,1.2,0,0,0-.429-.078,1.315,1.315,0,0,0,0,2.628,1.21,1.21,0,0,0,.429-.078v.057h.6Zm-1.024,3a.8.8,0,0,1,0-1.574.584.584,0,0,1,.429.2v1.177a.584.584,0,0,1-.429.2" fill="#fff" fill-rule="evenodd"></path>
  </g>
</svg>
