<?xml version="1.0" encoding="UTF-8"?>
<svg xmlns="http://www.w3.org/2000/svg" xmlns:xlink="http://www.w3.org/1999/xlink" width="48" height="48" viewBox="0 0 48 48">
  <defs>
    <clipPath id="clip-path">
      <rect id="Rectángulo_6" data-name="Rectángulo 6" width="48" height="48" fill="none"></rect>
    </clipPath>
  </defs>
  <g id="tripadvisor" clip-path="url(#clip-path)">
    <path id="Trazado_6" data-name="Trazado 6" d="M24,0A24,24,0,1,0,48,24,24,24,0,0,0,24,0m8.853,34.712a8.82,8.82,0,0,1-6.015-2.358L24,35.441l-2.838-3.088-.015.014A8.853,8.853,0,0,1,9.181,19.316l-2.9-3.152h6.439a20.061,20.061,0,0,1,22.574,0h6.422l-2.9,3.152a8.854,8.854,0,0,1-5.969,15.4m-2.2-17.8C26.869,18.361,24,21.744,24,25.687c0-3.943-2.868-7.326-6.65-8.773a17.291,17.291,0,0,1,13.3,0m2.2,2.954a5.991,5.991,0,1,0,5.991,5.991,5.991,5.991,0,0,0-5.991-5.991m3.141,5.992a3.141,3.141,0,1,1-3.141-3.141h0a3.141,3.141,0,0,1,3.141,3.141ZM15.146,19.868a5.991,5.991,0,1,0,5.991,5.991,5.991,5.991,0,0,0-5.991-5.991m3.141,5.991a3.141,3.141,0,1,1-3.142-3.141h0a3.141,3.141,0,0,1,3.141,3.141" fill="#fff"></path>
  </g>
</svg>
