<?xml version="1.0" encoding="UTF-8"?>
<svg id="Capa_2" data-name="Capa 2" xmlns="http://www.w3.org/2000/svg" viewBox="0 0 70 47">
  <defs>
    <style>
      .cls-1 {
        fill: #ed5565;
      }

      .cls-2 {
        fill: #ffce54;
        fill-rule: evenodd;
      }
    </style>
  </defs>
  <g id="Flags">
    <g>
      <path class="cls-2" d="m6.36,0h57.27C67.15,0,70,2.87,70,6.41v34.18c0,3.54-2.85,6.41-6.36,6.41H6.36C2.85,47,0,44.13,0,40.59V6.41C0,2.87,2.85,0,6.36,0Z"/>
      <path class="cls-1" d="m16.76,17.5c-2.11,0-3.25-1.5-3.25-1.5,0,0-1.14,1.5-3.25,1.5-1.94,0-3.25-1.25-3.25-1.25v8.15c.06,5.37,6.5,7.59,6.5,7.59,0,0,6.5-2.22,6.5-7.59v-8.15s-1.3,1.25-3.24,1.25ZM0,37v3.59c0,3.54,2.85,6.41,6.36,6.41h57.27c3.51,0,6.36-2.87,6.36-6.41v-3.59H0ZM63.64,0H6.36C2.85,0,0,2.87,0,6.41v3.59h70v-3.59c0-3.54-2.85-6.41-6.36-6.41Z"/>
    </g>
  </g>
</svg>