<?xml version="1.0" encoding="UTF-8"?>
<svg id="Capa_2" data-name="Capa 2" xmlns="http://www.w3.org/2000/svg" viewBox="0 0 70 47">
  <defs>
    <style>
      .cls-1 {
        fill: #4758a9;
      }

      .cls-1, .cls-2, .cls-3 {
        fill-rule: evenodd;
      }

      .cls-2 {
        fill: #ed5565;
      }

      .cls-3 {
        fill: #fff;
      }
    </style>
  </defs>
  <g id="Flags">
    <g>
      <path class="cls-1" d="m6.36,0h57.27C67.15,0,70,2.87,70,6.41v34.18c0,3.54-2.85,6.41-6.36,6.41H6.36C2.85,47,0,44.13,0,40.59V6.41C0,2.87,2.85,0,6.36,0Z"/>
      <path class="cls-3" d="m66.36.63l-25.36,16.35V0h-12v16.87L3.71.59C2.14,1.32.92,2.67.35,4.33l21.24,13.67H0v12h20.81L.5,43.09c.69,1.65,2.06,2.94,3.74,3.54l24.76-15.96v16.33h12v-16.51l24.96,16.06c1.63-.65,2.94-1.95,3.58-3.59l-20.14-12.96h20.59v-12h-21.36l21.04-13.57c-.54-1.68-1.76-3.05-3.32-3.81Z"/>
      <path class="cls-2" d="m44,20L69.37,3.64c-.49-1.04-1.25-1.92-2.19-2.56l-28.18,18.17V0h-8v19.14L2.89,1.05c-.94.62-1.71,1.49-2.21,2.51l25.56,16.45H0v8h25.44L.88,43.84c.59,1,1.43,1.83,2.45,2.39l27.67-17.84v18.62h8v-18.78l27.83,17.91c.99-.58,1.8-1.41,2.36-2.41l-24.42-15.71h25.23v-8h-26Z"/>
    </g>
  </g>
</svg>