<?xml version="1.0" encoding="UTF-8"?>
<svg id="Capa_2" data-name="Capa 2" xmlns="http://www.w3.org/2000/svg" viewBox="0 0 50 20">
  <defs>
    <style>
      .cls-1 {
        fill: #004257;
        fill-rule: evenodd;
      }
    </style>
  </defs>
  <g id="Capa_1-2" data-name="Capa 1">
    <path class="cls-1" d="m11.17,17c-.2-.48-.36-.75-.41-1.04-.04-.21-.01-.52.12-.66.31-.33.55-.59.46-1.12-.12-.64.36-1,.9-1.32.3.16.62.33,1,.54.38-.23.8-.48,1.21-.72.62.13.94.75.98,2.04.87.14,1.77.29,2.59.43.12.19.24.29.24.39,0,.36-.02.72-.04,1.17-1.78.42-3.32-.28-4.97-.76-.6.31-1.24.64-2.08,1.07Zm-5.63,2.22c1.69-.2,2.61-.54,4.04-1.49-.09-.53-.18-1.06-.79-1.33-1.03.41-2.07.82-3.25,1.29v1.53Zm5.46-13.6q.63.53,1.43.73c.68-1.02,1.37-2.04,2.06-3.07-.1-.26-.17-.5-.29-.72-.08-.15-.24-.27-.49-.55-1.24,1.09-2.12,2.24-2.71,3.6Zm13.89,9.62c-.16-.49-.03-1.1-.64-1.43-.64.24-2.43.62-3.08.81-1.01.28-1.35.94-1.24,1.93,1.52.09,3.56-.29,4.97-1.3Zm-13.22-4.27c.06-1,.11-1.91.17-2.9-.5-.18-.95-.34-1.47-.53-.52,1.52-.64,2.93-.08,4.66.61-.54,1.02-.9,1.39-1.23ZM3.68,19.57c-.04-.47-.07-.87-.11-1.4-.78.04-1.45.08-2.12.11-.91.04-1.23.61-1.46,1.6,1.38.15,2.52.26,3.68-.31ZM18.43,0c-1.05.04-2.08.17-3,.96.22.42.41.77.57,1.07,1.08-.25,2.03-.48,3.1-.73.22-1.11.11-1.33-.68-1.3Zm-2.67,11.67c.23.37.45.73.68,1.08.02.04.11.03.28.06.73-.51,1.4-1.16,1.98-2.01-.43-.4-.78-.71-1.17-1.07-.72.56-1.38,1.07-1.76,1.93Zm5.92-5.27c.04-.09-.05-.23-.09-.42-.38-.04-.79-.09-1.23-.14-.54.82-1.05,1.58-1.57,2.37.33.39.6.71,1.05,1.24.77-1.12,1.4-2.02,1.84-3.04Zm-.5-2.45c.43.1.78.47,1.29.02.23-1.15-.21-2.09-1.19-2.97-1.06,1.1-.15,2-.11,2.96Zm15.72,14.3c-.03.18-.08.35-.08.53,0,.37.04.74.43.91.36.16.62-.06.87-.29.68-.64,1.27-1.34,1.76-2.14.63-1.05,1.23-2.11,1.86-3.16.57-.95,1.16-1.88,1.74-2.82.17-.28.39-.51.69-.69,1.62-.97,3.01-2.24,4.48-3.4.23-.18.45-.39.67-.6.33-.32.56-.7.66-1.15.11-.5-.02-.94-.31-1.35-.24-.34-.61-.34-.96-.35-1.38-.05-2.6.28-3.9.81-.77.32-4.43,1.69-4.43,1.69,0,0-1.41-.97-1.99-1.32-.74-.44-1.48-.9-2.24-1.3-.47-.24-.99-.41-1.5-.57-.28-.09-.6-.12-.82.16-.22.28-.12.57.03.83.16.29.33.57.5.85.57.88,1.84,3.24,1.84,3.24,0,0-2.61,1.04-3.94,1.55-1.07.41-2.15.42-3.22-.06-.73-.33-1.48-.64-2.21-.97-.45-.21-.91-.28-1.39-.17-.37.09-.56.36-.49.73.04.23.12.46.21.68.31.75,1.84,2.96,2.12,3.41.23.36.22,3.4.23,3.88,0,.29.12.53.41.63.29.1.53-.02.72-.23.14-.15,1.32-1.73,1.77-2.36.18-.25.37-.45.69-.52,1.93-.4,5.97-1.58,6.1-1.59.04.09-.01,3.48-.3,5.11Z"/>
  </g>
</svg>