<?xml version="1.0" encoding="UTF-8"?>
<svg id="Capa_2" data-name="Capa 2" xmlns="http://www.w3.org/2000/svg" viewBox="0 0 43 18">
  <defs>
    <style>
      .cls-1 {
        fill: #004257;
        fill-rule: evenodd;
      }
    </style>
  </defs>
  <g id="Capa_1-2" data-name="Capa 1">
    <path class="cls-1" d="m19.82,7.05c-.01-.42-.02-.76-.03-1.04.19-.14.28-.26.38-.27.49-.04.98-.04,1.53-.06.44-.54.88-1.1,1.41-1.75.42.3.79.56,1.23.88-.17.43-.32.8-.51,1.28.26.19.54.39.92.67-.2.37-.41.77-.61,1.16-.47-.02-.83-.04-1.26-.06-.21.55-.41,1.1-.66,1.76-.35-.06-.68-.12-1.13-.2.01-.63.02-1.21.03-1.9-.35-.12-.74-.25-1.31-.45ZM36.41,1.72c.09-.36.19-.8.3-1.24-1.58-.51-3.33-.61-5.2-.32-.1.02-.18.15-.35.29.07.35.14.75.21,1.13,1.2.29,4.62.42,5.04.14Zm2.28-1c-.17.61-.31,1.1-.47,1.66,1.31.5,2.51.96,3.92,1.5.28-.45.52-.85.86-1.41-1.47-.96-2.81-1.35-4.31-1.74Zm-9.32,1.49c.07-.61.14-1.14-.34-1.53-1.86.43-3.92,1.45-4.04,2.13.25.27.56.61.92,1,1.3-.6,2.4-1.11,3.46-1.6ZM3.89,15.65c-.06-.66-.16-.88-.81-1.12-.84.7-1.99,1.73-2.97,2.59-.28.29,0,1.04.45.85,1.36-.73,2.42-1.49,3.32-2.32Zm3.75-4.73c-1.1.76-2.2,1.27-2.97,2.36.07.58.24.89.87,1.09.96-.77,1.87-1.41,2.91-2.24-.36-.54-.52-.78-.81-1.2Zm2.6-.11c.69-.4,1.5-.74,2.23-1.18.85-.51.85-.59.2-1.81-1.15.41-2.22.98-3.24,1.79.08.65.11,1.03.81,1.2Zm19.42,2.22c0-.65,0-1.32-.55-1.91-.39.15-.77.29-1.22.46.43,1.09-.27,2.35.9,3.35.64-.62.87-1.23.87-1.9Zm-11.99-5.48c.32-.5.33-.93.03-1.34-1.71.15-1.89.21-2.94.94l.25,1.07c1-.09,1.86-.36,2.66-.67Zm4.48,6.81c.69-.69.71-.7.61-1.18-.13-.64-.3-1.28-.45-1.93-.33-.06-.57-.13-.81-.15-.11,0-.22.08-.41.16-.02,1.14.24,2.2,1.06,3.1Zm4.71-4.27c.59-.17,1.15-.13,1.27-.81-.43-.64-.95-1.2-1.77-1.56-.27.34-.53.66-.93,1.15.59.51,1.04.89,1.43,1.22Zm.11,5.51c-.15-.34-.27-.61-.42-.95-.93.35-2.15-.62-2.81.84,1.07.58,2.09.64,3.23.11Z"/>
  </g>
</svg>