<?xml version="1.0" encoding="UTF-8"?>
<svg id="Capa_2" data-name="Capa 2" xmlns="http://www.w3.org/2000/svg" xmlns:xlink="http://www.w3.org/1999/xlink" viewBox="0 0 175.86 109.45">
  <defs>
    <style>
      .cls-1 {
        fill: #fff;
      }

      .cls-2 {
        fill: #113f55;
      }

      .cls-3 {
        fill: #04aaa1;
      }

      .cls-4 {
        fill: url(#Degradado_sin_nombre_17);
      }

      .cls-5 {
        fill: url(#Degradado_sin_nombre_17-2);
      }

      .cls-6 {
        fill: url(#Degradado_sin_nombre_17-3);
      }
    </style>
    <radialGradient id="Degradado_sin_nombre_17" data-name="Degradado sin nombre 17" cx="60.37" cy="34.21" fx="60.37" fy="34.21" r="96.36" gradientUnits="userSpaceOnUse">
      <stop offset="0" stop-color="#00cfbb"/>
      <stop offset="1" stop-color="#113f55"/>
    </radialGradient>
    <radialGradient id="Degradado_sin_nombre_17-2" data-name="Degradado sin nombre 17" cx="111.59" cy="46.44" fx="111.59" fy="46.44" r="18.53" xlink:href="#Degradado_sin_nombre_17"/>
    <radialGradient id="Degradado_sin_nombre_17-3" data-name="Degradado sin nombre 17" cx="90.3" cy="7.56" fx="90.3" fy="7.56" r="57.73" xlink:href="#Degradado_sin_nombre_17"/>
  </defs>
  <g id="Capa_1-2" data-name="Capa 1">
    <g>
      <path id="Trazado_40" data-name="Trazado 40" class="cls-1" d="m13.33,104.11h-2.27v-.68h5.22v.68h-2.27v5.19h-.67v-5.19Zm10.22-.68h3.09c.84-.09,1.59.51,1.69,1.35.01.09.01.19,0,.28.04.79-.5,1.5-1.28,1.65l1.35,2.58h-.74l-1.35-2.57h-2.09v2.57h-.67v-5.87Zm3.05,2.61c.68,0,1.03-.34,1.03-.96.05-.5-.32-.93-.81-.98-.06,0-.12,0-.19,0h-2.41v1.94h2.38Zm11.43-2.61h.56l2.67,5.87h-.74l-.73-1.58h-2.99l-.71,1.58h-.72l2.66-5.87Zm1.47,3.6l-1.19-2.6-1.18,2.6h2.37Zm10.81,2.26l-2.6-5.87h.73l2.08,4.7,2.08-4.7h.74l-2.61,5.87h-.42Zm10.79-5.87h4.25v.68h-3.57v1.72h2.16v.68h-2.16v2.12h3.79v.68h-4.47v-5.88Zm12.48,0h.67v5.19h3.52v.68h-4.19v-5.87Zm24.2,0h.56l2.67,5.87h-.73l-.73-1.58h-2.99l-.71,1.58h-.72l2.65-5.87Zm1.47,3.6l-1.19-2.6-1.18,2.6h2.37Zm13.54-.18h-1.47v-.68h2.14v1.77c-.45.94-1.41,1.53-2.45,1.51-1.7-.16-2.95-1.67-2.79-3.36.14-1.48,1.31-2.65,2.79-2.79.98,0,1.89.52,2.36,1.37l-.56.44c-.33-.69-1.03-1.13-1.8-1.12-1.32.17-2.25,1.38-2.08,2.7.14,1.08.99,1.94,2.08,2.08.74,0,1.42-.4,1.77-1.06v-.86Zm9.07-3.42h4.25v.68h-3.57v1.72h2.16v.68h-2.16v2.12h3.8v.68h-4.46v-5.88Zm12.48,0h.35l3.5,4.39v-4.38h.67v5.87h-.34l-3.51-4.39v4.39h-.67v-5.87Zm18,4.43c-.44.98-1.41,1.6-2.48,1.59-1.7-.16-2.95-1.67-2.79-3.36.14-1.48,1.31-2.65,2.79-2.79.98,0,1.89.52,2.36,1.37l-.56.44c-.33-.69-1.03-1.13-1.8-1.12-1.32.17-2.25,1.37-2.09,2.69.14,1.09,1,1.95,2.09,2.09.86,0,1.63-.54,1.94-1.34l.54.43Zm9.34-1.5l-2.43-2.93h.84l1.93,2.32,1.93-2.31h.85l-2.45,2.94v2.93h-.67v-2.94Z"/>
      <g>
        <path id="Trazado_41" data-name="Trazado 41" class="cls-3" d="m0,74.76h5.11c1.43-.11,2.84.4,3.88,1.39.94,1.14,1.4,2.6,1.29,4.08v2.17c.11,1.47-.36,2.93-1.29,4.07-1.04.99-2.45,1.5-3.88,1.39h-1.64v8.99H0v-22.09Zm5.11,9.94c.47.04.94-.14,1.28-.47.33-.47.48-1.04.43-1.61v-2.62c.05-.57-.1-1.14-.43-1.61-.34-.34-.8-.51-1.28-.47h-1.64v6.78h1.64Zm10.22-9.94h9.47v3.15h-5.99v5.84h4.76v3.15h-4.76v6.78h5.99v3.16h-9.47v-22.09Zm14.61,0h5.14c1.42-.13,2.83.32,3.91,1.25.9,1.06,1.34,2.44,1.23,3.83v1.36c0,2.29-.76,3.74-2.27,4.35v.06c.8.22,1.46.79,1.78,1.55.39,1,.56,2.06.52,3.13v3.88c0,.51.02,1.02.06,1.53.04.4.15.79.32,1.15h-3.53c-.12-.33-.2-.67-.25-1.01-.05-.57-.08-1.14-.06-1.7v-4.05c.07-.74-.1-1.48-.49-2.11-.44-.45-1.06-.67-1.69-.6h-1.2v9.46h-3.47v-22.08Zm4.73,9.46c.57.04,1.14-.15,1.56-.54.4-.51.58-1.15.52-1.8v-1.7c.05-.61-.1-1.22-.43-1.74-.34-.38-.83-.58-1.34-.54h-1.58v6.31h1.26Zm12.34,11.5c-.95-1.15-1.43-2.63-1.33-4.12v-16.85h3.47v17.1c-.05.58.11,1.17.46,1.64.74.67,1.88.67,2.62,0,.35-.47.51-1.06.46-1.64v-17.1h3.34v16.85c.1,1.49-.37,2.96-1.32,4.12-2.21,1.91-5.49,1.91-7.7,0"/>
        <path id="Trazado_42" data-name="Trazado 42" class="cls-2" d="m62.74,95.74c-.93-1.12-1.4-2.55-1.31-4.01v-11.86c-.09-1.45.38-2.89,1.31-4.01,2.18-1.89,5.42-1.89,7.6,0,.93,1.12,1.4,2.55,1.31,4.01v2.33h-3.29v-2.56c0-1.37-.58-2.05-1.74-2.05s-1.74.68-1.74,2.05v12.34c0,1.35.58,2.02,1.74,2.02s1.74-.67,1.74-2.02v-3.38h3.28v3.13c.09,1.45-.38,2.89-1.31,4.01-2.18,1.89-5.42,1.89-7.6,0m15.32-.03c-.97-1.14-1.45-2.61-1.36-4.1v-11.61c-.09-1.49.39-2.96,1.36-4.1,2.25-1.94,5.58-1.94,7.83,0,.97,1.14,1.45,2.61,1.36,4.1v11.61c.09,1.49-.39,2.96-1.36,4.1-2.25,1.93-5.58,1.93-7.83,0m5.71-3.88v-12.05c0-1.45-.6-2.17-1.8-2.17s-1.8.72-1.8,2.17v12.05c0,1.45.6,2.17,1.8,2.17s1.8-.72,1.8-2.17m8.96-17.07h4.35l3.38,13.22h.06v-13.22h3.09v22.09h-3.55l-4.16-16.12h-.06v16.12h-3.09v-22.09Zm16.63,0h9.47v3.15h-6v5.84h4.76v3.15h-4.76v6.78h6v3.16h-9.47v-22.09Zm17.74,10.8l-3.82-10.79h3.66l2.33,7.12h.06l2.4-7.13h3.28l-3.81,10.8,4.01,11.3h-3.66l-2.52-7.7h-.06l-2.58,7.7h-3.28l4-11.3Zm12.9-10.79h3.47v22.08h-3.46v-22.08Zm10.32,20.95c-.97-1.14-1.45-2.61-1.36-4.1v-11.62c-.09-1.49.39-2.96,1.36-4.1,2.25-1.94,5.58-1.94,7.83,0,.97,1.14,1.45,2.61,1.36,4.1v11.61c.09,1.49-.39,2.96-1.36,4.1-2.25,1.93-5.58,1.93-7.83,0m5.71-3.88v-12.05c0-1.45-.6-2.17-1.8-2.17s-1.8.72-1.8,2.17v12.05c0,1.45.6,2.17,1.8,2.17s1.8-.72,1.8-2.17m8.96-17.07h4.35l3.38,13.22h.06v-13.22h3.09v22.09h-3.57l-4.15-16.12h-.06v16.12h-3.09v-22.09Z"/>
      </g>
      <g>
        <path id="Trazado_43" data-name="Trazado 43" class="cls-4" d="m129.07,30.56c-.14-.43-.98-.85-2.29-.72-1.72.18-2.02-.96-6.76.23-.6.15-3.26.9-3.85,1.08-4.55,1.34-7.04.76-11.45-1.16-1.43-.66-2.91-1.19-4.44-1.58-2.55-.68-5.26-.13-7.34,1.5l10.84,7.15c-3.6,2.59-7.13,4.08-11.39,2.47-1.54-.83-3.42-.64-4.77.47l3.61,2.64c-5.91,2.08-16.29,1.4-22.03-4.42-3.07-3.11-5.53-10.11-4.21-13.54l1.96,5.24c3.24-13.63,11.36-21.79,24.65-22.3,20.99-.82,27.21,18.44,27.41,18.37-.1-.65-.16-1.31-.32-1.95C114.62,8.13,99.18-2.1,82.96.36c-10.67,1.49-19.73,8.56-23.76,18.54-1.12,2.86-1.78,5.89-1.96,8.96-.6,10.34,3.32,15.12,11.84,17.96.68.23,1.37.41,2.07.57,8.73,2.07,17.03.24,25.2-2.76,5.3-1.95,10.6-3.91,15.91-5.83,2.52-.91,5.04-1.8,7.57-2.69,2.06-.73,4.12-1.46,6.17-2.21,1.45-.53,3.42-1.26,3.08-2.35"/>
        <path id="Trazado_44" data-name="Trazado 44" class="cls-5" d="m116.04,36.8l-6.9,3.2c0,.28-.02.55-.03.83,1.55.57,3.36,1.92,4.6,1.53,2.1-.67,2.39-3.04,2.32-5.56"/>
        <path id="Trazado_45" data-name="Trazado 45" class="cls-6" d="m111.18,53.5c-.54-.46-1.04-.96-1.5-1.5-1.68-1.9-6.91-3.28-6.91-3.28-.48-.35-.89-.81-1.19-1.33-.17-.28-.36-.54-.57-.78-.22-.26-.46-.49-.71-.71-2.68-5.06-5.59,3.55-6.28,3.92-.32.16-.61.39-.84.66-.14.13-.28.26-.43.38-.59.46-1.02.11-1.97-.98-.13-.14-.26-.29-.4-.46-.54-.63-1.44.1-2.29,1.12-.8,1.02-1.52,2.1-2.15,3.23-.36.07-.71.2-1.03.38-.5.25-.85.71-.98,1.26-.28.06-.56.14-.83.25-.96.39-1.76,1.09-2.27,1.99-1.54-.67-3.3-.65-4.83.06-.66-.82-1.64-1.31-2.69-1.36-.19-.02-.32-.03-.37-.03h-.02c-.19-2.58-4.34-2.84-4.34-2.84-1.68.25-3.4-.11-4.83-1.02-.07-.09-.15-.18-.23-.27l-.38-.08c.08.15.18.3.28.43.47.54.95,1.07,1.45,1.58,5.97,6.22,14.22,9.74,22.84,9.76.15,0,.3.01.45.01,6.19,0,12.25-1.8,17.42-5.2-.37.04-.75.07-1.13.08-.21,0-.43-.21-.64-.32l.07-.14c.8-.16,1.6-.27,2.38-.49.34-.1.67-.21,1-.32,1.51-1.13,2.92-2.4,4.2-3.78-.1-.06-.2-.13-.29-.21m-19.73,4.44c-1.02.06-2.04.02-3.2.02.59-1.17,1.27-1.82,2.48-1.62.4.04.8.04,1.19.01v-.21h-2.04c.09-.54.31-.75.77-.73.62.03,1.24,0,1.86,0v-.19h-1.59c-.03-.08-.06-.15-.09-.23.17-.14.37-.25.58-.32.39-.05.79,0,1.19-.01.18-.02.36-.05.53-.09,0-.06,0-.12,0-.17l-1.62-.07c.62-.7,1.54-.15,2.37-.63l-.97-.2.75-.91c.1.03.14.03.17.05q.85.83.22,1.84c-.63,1-1.22,2-1.88,2.97-.17.25-.43.43-.73.48m5.26-4.35c-.27,1.64-.5,3.29-.74,4.94-.06.42-.25.63-.7.6-.51-.04-1.03-.04-1.55-.05-.49-.01-.67-.31-.48-.7.21-.46.5-.88.85-1.24.38-.35.9-.11,1.35.54.06-.35.11-.62.17-.94l-1.67-.11c.34-.47.51-.92.84-1.09.25-.14.68.09,1.07.17.16-.66-.5-.61-1.03-.78.4-.44.8-.22,1.22-.16.12-.68-.42-.61-.83-.7v-.2l.95-.15c.15-.66-.59-.16-.73-.49,0-.02,0-.1.03-.13.21-.22.29-.74.72-.54.4.17.62.6.52,1.02m1.05-2.33c.34.14.69.29,1.03.43.22.12.45.22.68.3.38.09.77.11,1.15.19.53.17,1.06.3,1.6.41,1.03.17,1.97.67,2.69,1.43-1.01.27-2.09.12-2.98-.43-.7-.54-1.53-.9-2.41-1.02-.7-.21-1.33-.59-1.83-1.12l.08-.2m6.34,4.07c-.82.32-1.22.15-1.68-.68.64-.28,1.05-.12,1.68.68m-2.64-1.11c-.69.37-1.24.12-1.6-.73.63-.25,1.11-.03,1.6.73m-2.3,4.88c-.11,0-.27-.23-.31-.37-.53-1.79-1.06-3.58-1.53-5.39-.06-.24.23-.57.36-.86.23.1.45.21.67.33.12.12.22.26.3.41l-.84.09c.09.75.91.05,1.07.63-.22.23-.97-.01-.68.75.72-.21.8-.2,1.11.14q-.89.35-.74.9c.74-.69,1.47-.25,1.77.86l-1.46.07.22.74c.3-.16.62-.47.87-.42.36.11.68.33.91.62.3.37.57.75.81,1.16-.8.32-1.67.44-2.54.34m1.89-4.28c.63-.29,1.22-.02,1.62.75-.79.28-1.17.1-1.62-.75m1.13,1.79c.36-.12.7-.21,1.02-.35.83-.37,1.67-.72,2.48-1.15.48-.26.72-.11.94.29-.87.87-3.89,1.72-4.43,1.21m5.54.12c-1.35.62-2.82.96-4.31,1-.18.01-.37-.17-.55-.26l.05-.14c.76-.2,1.53-.37,2.28-.62.69-.23,1.37-.52,2.02-.85.24-.18.58-.13.76.11.03.04.06.09.07.14.23.37-.09.5-.32.62"/>
      </g>
    </g>
  </g>
</svg>