<?xml version="1.0" encoding="UTF-8"?>
<svg id="Capa_2" data-name="Capa 2" xmlns="http://www.w3.org/2000/svg" xmlns:xlink="http://www.w3.org/1999/xlink" viewBox="0 0 189.03 48">
  <defs>
    <style>
      .cls-1 {
        fill: #113f55;
      }

      .cls-2 {
        fill: #161615;
      }

      .cls-3 {
        fill: #04aaa1;
      }

      .cls-4 {
        fill: url(#Degradado_sin_nombre_17);
      }

      .cls-5 {
        fill: url(#Degradado_sin_nombre_17-2);
      }

      .cls-6 {
        fill: url(#Degradado_sin_nombre_17-3);
      }
    </style>
    <radialGradient id="Degradado_sin_nombre_17" data-name="Degradado sin nombre 17" cx="40.89" cy="34.9" fx="40.89" fy="34.9" r="13.93" gradientUnits="userSpaceOnUse">
      <stop offset="0" stop-color="#00cfbb"/>
      <stop offset="1" stop-color="#113f55"/>
    </radialGradient>
    <radialGradient id="Degradado_sin_nombre_17-2" data-name="Degradado sin nombre 17" cx="2.4" cy="25.71" fx="2.4" fy="25.71" r="72.41" xlink:href="#Degradado_sin_nombre_17"/>
    <radialGradient id="Degradado_sin_nombre_17-3" data-name="Degradado sin nombre 17" cx="24.89" cy="5.68" fx="24.89" fy="5.68" r="43.39" xlink:href="#Degradado_sin_nombre_17"/>
  </defs>
  <g id="Capa_1-2" data-name="Capa 1">
    <g>
      <g>
        <path id="Trazado_40" data-name="Trazado 40" class="cls-2" d="m66.87,33.14h-1.71v-.51h3.92v.51h-1.71v3.9h-.5v-3.9Zm7.68-.51h2.33c.63-.07,1.2.38,1.27,1.01,0,.07,0,.14,0,.21.03.6-.38,1.13-.96,1.24l1.02,1.94h-.56l-1.02-1.93h-1.57v1.93h-.5v-4.41Zm2.29,1.96c.51,0,.77-.25.77-.72.03-.37-.24-.7-.61-.74-.05,0-.09,0-.14,0h-1.81v1.46h1.79Zm8.59-1.96h.42l2.01,4.41h-.55l-.55-1.19h-2.25l-.53,1.19h-.54l2-4.41Zm1.11,2.71l-.89-1.96-.89,1.96h1.78Zm8.12,1.7l-1.96-4.41h.55l1.57,3.53,1.56-3.53h.56l-1.96,4.41h-.32Zm8.11-4.41h3.19v.51h-2.69v1.3h1.63v.51h-1.63v1.59h2.85v.51h-3.36v-4.42Zm9.38,0h.5v3.9h2.64v.51h-3.15v-4.41Zm18.18,0h.42l2.01,4.41h-.55l-.55-1.19h-2.25l-.53,1.19h-.54l1.99-4.41Zm1.11,2.71l-.89-1.96-.89,1.96h1.78Zm10.18-.14h-1.11v-.51h1.61v1.33c-.34.7-1.06,1.15-1.84,1.14-1.28-.12-2.21-1.25-2.09-2.53.1-1.11.98-1.99,2.09-2.09.74,0,1.42.39,1.78,1.03l-.42.33c-.25-.52-.78-.85-1.35-.84-.99.13-1.69,1.04-1.56,2.03.11.81.75,1.45,1.56,1.56.56,0,1.07-.3,1.33-.79v-.65Zm6.82-2.57h3.19v.51h-2.69v1.3h1.63v.51h-1.63v1.59h2.85v.51h-3.35v-4.42Zm9.38,0h.26l2.63,3.3v-3.29h.5v4.41h-.25l-2.64-3.3v3.3h-.5v-4.41Zm13.53,3.33c-.33.74-1.06,1.2-1.87,1.19-1.28-.12-2.21-1.25-2.09-2.53.1-1.11.98-1.99,2.09-2.09.74,0,1.42.39,1.78,1.03l-.42.33c-.25-.52-.78-.85-1.35-.84-.99.13-1.69,1.03-1.57,2.02.1.82.75,1.47,1.57,1.57.65,0,1.22-.41,1.46-1.01l.41.33Zm7.02-1.13l-1.83-2.2h.63l1.45,1.74,1.45-1.74h.64l-1.84,2.21v2.2h-.5v-2.21Z"/>
        <g>
          <path id="Trazado_41" data-name="Trazado 41" class="cls-3" d="m56.86,11.08h3.84c1.08-.08,2.14.3,2.92,1.04.7.86,1.05,1.96.97,3.06v1.63c.08,1.11-.27,2.2-.97,3.06-.78.75-1.84,1.13-2.92,1.04h-1.23v6.76h-2.61V11.08Zm3.84,7.47c.36.03.71-.1.96-.36.25-.35.36-.78.32-1.21v-1.97c.04-.43-.07-.86-.32-1.21-.25-.25-.6-.38-.96-.36h-1.23v5.1h1.23Zm7.68-7.47h7.11v2.37h-4.51v4.39h3.58v2.37h-3.58v5.1h4.51v2.37h-7.11V11.08Zm10.98,0h3.87c1.07-.09,2.13.24,2.94.94.68.8,1.01,1.84.92,2.88v1.02c0,1.72-.57,2.81-1.71,3.27v.05c.6.16,1.09.59,1.34,1.16.29.75.42,1.55.39,2.35v2.92c0,.38.01.77.05,1.15.03.3.11.59.24.87h-2.66c-.09-.25-.15-.5-.19-.76-.04-.43-.06-.85-.05-1.28v-3.04c.05-.56-.08-1.11-.37-1.59-.33-.33-.8-.5-1.27-.45h-.9v7.11h-2.61V11.08Zm3.56,7.11c.43.03.85-.11,1.17-.4.3-.38.44-.87.39-1.35v-1.28c.04-.46-.07-.92-.32-1.3-.25-.29-.63-.44-1.01-.4h-1.19v4.74h.95Zm9.27,8.64c-.71-.87-1.07-1.97-1-3.09v-12.67h2.61v12.85c-.04.44.08.88.34,1.23.56.51,1.41.51,1.97,0,.26-.36.38-.79.34-1.23v-12.85h2.51v12.67c.08,1.12-.28,2.23-1,3.09-1.66,1.44-4.13,1.44-5.79,0"/>
          <path id="Trazado_42" data-name="Trazado 42" class="cls-1" d="m104.01,26.85c-.7-.84-1.05-1.92-.98-3.01v-8.91c-.07-1.09.28-2.17.98-3.01,1.64-1.42,4.08-1.42,5.71,0,.7.84,1.05,1.92.98,3.01v1.75h-2.47v-1.92c0-1.03-.43-1.54-1.3-1.54s-1.3.51-1.3,1.54v9.27c0,1.01.43,1.52,1.3,1.52s1.3-.51,1.3-1.52v-2.54h2.47v2.35c.07,1.09-.28,2.17-.98,3.01-1.64,1.42-4.08,1.42-5.71,0m11.51-.02c-.73-.86-1.09-1.96-1.02-3.08v-8.73c-.07-1.12.3-2.23,1.02-3.08,1.69-1.45,4.19-1.45,5.88,0,.73.86,1.09,1.96,1.02,3.08v8.73c.07,1.12-.3,2.23-1.02,3.08-1.69,1.45-4.19,1.45-5.88,0m4.29-2.92v-9.06c0-1.09-.45-1.63-1.35-1.63s-1.35.54-1.35,1.63v9.06c0,1.09.45,1.63,1.35,1.63s1.35-.54,1.35-1.63m6.73-12.83h3.27l2.54,9.94h.05v-9.94h2.32v16.6h-2.67l-3.13-12.12h-.05v12.12h-2.32V11.08Zm12.5,0h7.11v2.37h-4.51v4.39h3.58v2.37h-3.58v5.1h4.51v2.37h-7.11V11.08Zm13.33,8.11l-2.87-8.11h2.75l1.75,5.35h.05l1.8-5.36h2.47l-2.86,8.12,3.01,8.49h-2.75l-1.9-5.79h-.05l-1.94,5.79h-2.47l3.01-8.49Zm9.7-8.11h2.61v16.59h-2.6V11.09Zm7.75,15.75c-.73-.86-1.09-1.96-1.02-3.08v-8.73c-.07-1.12.3-2.23,1.02-3.08,1.69-1.45,4.19-1.45,5.88,0,.73.86,1.09,1.96,1.02,3.08v8.73c.07,1.12-.3,2.23-1.02,3.08-1.69,1.45-4.19,1.45-5.88,0m4.29-2.92v-9.06c0-1.09-.45-1.63-1.35-1.63s-1.35.54-1.35,1.63v9.06c0,1.09.45,1.63,1.35,1.63s1.35-.54,1.35-1.63m6.73-12.83h3.27l2.54,9.94h.05v-9.94h2.32v16.6h-2.68l-3.12-12.12h-.05v12.12h-2.32V11.08Z"/>
        </g>
      </g>
      <g>
        <path id="Trazado_44" data-name="Trazado 44" class="cls-4" d="m44.23,27.65l-5.19,2.41c0,.21-.01.42-.02.62,1.17.43,2.52,1.44,3.46,1.15,1.58-.5,1.8-2.28,1.75-4.18"/>
        <g>
          <path id="Trazado_43" data-name="Trazado 43" class="cls-5" d="m54.03,22.97c-.1-.33-.74-.64-1.72-.54-1.29.13-1.52-.72-5.08.17-.45.11-2.45.68-2.9.81-3.42,1-5.29.57-8.61-.88-1.07-.49-2.19-.89-3.33-1.19-1.91-.51-3.96-.1-5.52,1.12l8.15,5.37c-2.7,1.95-5.36,3.06-8.56,1.86-1.15-.62-2.57-.48-3.58.35l2.71,1.98c-4.44,1.56-12.24,1.05-16.56-3.32-2.3-2.33-4.16-7.6-3.17-10.18l1.47,3.94C9.77,12.23,15.88,6.1,25.86,5.72c15.77-.61,20.45,13.86,20.6,13.81-.08-.49-.12-.99-.24-1.47C43.17,6.11,31.56-1.57,19.37.27,11.36,1.39,4.55,6.7,1.52,14.21.67,16.36.18,18.63.05,20.94c-.45,7.77,2.5,11.37,8.9,13.49.51.17,1.03.31,1.55.43,6.56,1.56,12.8.18,18.94-2.07,3.98-1.46,7.97-2.93,11.96-4.38,1.89-.68,3.79-1.35,5.69-2.02,1.55-.55,3.1-1.1,4.64-1.66,1.09-.4,2.57-.95,2.32-1.76"/>
          <path id="Trazado_45" data-name="Trazado 45" class="cls-6" d="m40.58,40.21c-.41-.34-.78-.72-1.12-1.12-1.26-1.43-5.19-2.47-5.19-2.47-.36-.27-.67-.61-.89-1-.12-.21-.27-.4-.43-.59-.16-.19-.34-.37-.54-.53-2.02-3.81-4.2,2.67-4.72,2.94-.24.12-.45.29-.63.49-.1.1-.21.2-.32.28-.44.35-.76.08-1.48-.74-.09-.1-.19-.22-.3-.35-.41-.47-1.08.07-1.72.84-.6.77-1.14,1.58-1.62,2.43-.27.05-.53.15-.78.28-.37.19-.64.54-.74.94-.21.04-.42.11-.62.19-.72.29-1.32.82-1.71,1.49-1.16-.51-2.48-.49-3.63.04-.5-.61-1.23-.99-2.02-1.02-.14-.02-.24-.02-.28-.02h-.02c-.15-1.94-3.26-2.13-3.26-2.13-1.26.19-2.55-.08-3.63-.77-.06-.07-.12-.13-.17-.2l-.28-.06c.06.11.13.22.21.33.35.41.72.8,1.09,1.18,4.49,4.67,10.68,7.32,17.16,7.33.11,0,.22,0,.34,0,4.65,0,9.21-1.35,13.09-3.91-.28.03-.56.05-.85.06-.16,0-.32-.15-.48-.24l.05-.1c.6-.12,1.2-.2,1.79-.37.25-.07.5-.16.75-.24,1.13-.85,2.19-1.8,3.16-2.84-.08-.05-.15-.1-.22-.16m-14.83,3.34c-.77.04-1.53.02-2.41.02.45-.88.95-1.37,1.87-1.21.3.03.6.03.9,0v-.16h-1.53c.07-.41.23-.56.58-.55.47.02.93,0,1.4,0v-.14h-1.2c-.02-.06-.04-.12-.07-.17.13-.11.28-.19.44-.24.29-.04.6,0,.89,0,.14-.01.27-.04.4-.07,0-.04,0-.09,0-.13l-1.22-.05c.46-.53,1.16-.11,1.78-.47l-.73-.15.57-.69c.07.02.11.02.13.04q.64.63.17,1.38c-.47.75-.92,1.5-1.41,2.23-.13.19-.33.32-.55.36m3.96-3.27c-.2,1.24-.37,2.48-.55,3.71-.05.31-.19.48-.53.45-.39-.03-.77-.03-1.16-.04-.36,0-.5-.23-.36-.53.16-.35.37-.66.64-.93.28-.26.68-.09,1.01.41.05-.26.08-.46.13-.71l-1.26-.08c.26-.35.39-.69.63-.82.19-.1.51.07.8.13.12-.49-.38-.46-.77-.59.3-.33.6-.17.91-.12.09-.51-.32-.46-.62-.52v-.15l.72-.11c.11-.5-.44-.12-.55-.37,0-.02,0-.07.02-.1.16-.17.22-.55.54-.4.3.13.47.45.39.77m.79-1.75c.26.11.52.22.77.33.16.09.33.17.51.23.28.07.58.08.86.15.4.13.8.23,1.2.31.77.13,1.48.51,2.02,1.07-.76.2-1.57.09-2.24-.32-.53-.41-1.15-.67-1.81-.77-.52-.16-1-.45-1.38-.84l.06-.15m4.76,3.06c-.61.24-.92.11-1.26-.51.48-.21.79-.09,1.26.51m-1.98-.83c-.52.28-.93.09-1.21-.55.48-.19.84-.02,1.21.55m-1.73,3.67c-.09,0-.2-.17-.24-.28-.4-1.35-.8-2.69-1.15-4.05-.05-.18.17-.43.27-.65.17.07.34.16.5.25.09.09.17.19.23.31l-.63.07c.07.56.69.04.81.47-.17.17-.73,0-.51.56.54-.16.6-.15.83.11q-.67.26-.55.68c.56-.52,1.1-.19,1.33.64l-1.09.05.17.56c.23-.12.46-.35.65-.32.27.08.51.25.69.47.22.27.43.56.61.87-.6.24-1.26.33-1.91.26m1.42-3.22c.47-.22.92-.01,1.22.57-.59.21-.88.08-1.22-.57m.85,1.34c.27-.09.52-.16.76-.27.63-.28,1.26-.54,1.86-.86.36-.19.54-.08.7.22-.65.65-2.93,1.3-3.33.91m4.16.09c-1.02.47-2.12.72-3.24.75-.13,0-.28-.13-.42-.2l.04-.1c.57-.15,1.15-.28,1.71-.46.52-.18,1.03-.39,1.52-.64.18-.14.44-.1.57.08.02.03.04.07.06.1.17.28-.07.38-.24.47"/>
        </g>
      </g>
    </g>
  </g>
</svg>