<?xml version="1.0" encoding="UTF-8"?>
<svg xmlns="http://www.w3.org/2000/svg" xmlns:xlink="http://www.w3.org/1999/xlink" id="Capa_2" data-name="Capa 2" viewBox="0 0 160 142">
  <defs>
    <style>
      .cls-1 {
        fill: url(#Degradado_sin_nombre_17);
      }

      .cls-2 {
        fill: url(#Degradado_sin_nombre_17-2);
      }

      .cls-3 {
        fill: url(#Degradado_sin_nombre_17-3);
      }
    </style>
    <radialGradient id="Degradado_sin_nombre_17" data-name="Degradado sin nombre 17" cx="7.09" cy="76.06" fx="7.09" fy="76.06" r="214.32" gradientTransform="translate(0 .03)" gradientUnits="userSpaceOnUse">
      <stop offset="0" stop-color="#00cfbb"></stop>
      <stop offset="1" stop-color="#113f55"></stop>
    </radialGradient>
    <radialGradient id="Degradado_sin_nombre_17-2" data-name="Degradado sin nombre 17" cx="121.03" cy="103.27" fx="121.03" fy="103.27" r="41.22" xlink:href="#Degradado_sin_nombre_17"></radialGradient>
    <radialGradient id="Degradado_sin_nombre_17-3" data-name="Degradado sin nombre 17" cx="73.66" cy="16.78" fx="73.66" fy="16.78" r="128.41" xlink:href="#Degradado_sin_nombre_17"></radialGradient>
  </defs>
  <g id="Capa_1-2" data-name="Capa 1">
    <g>
      <path id="Trazado_43" data-name="Trazado 43" class="cls-1" d="m159.91,67.94c-.3-.97-2.18-1.9-5.1-1.6-3.82.39-4.5-2.14-15.04.51-1.33.34-7.26,2.01-8.57,2.39-10.11,2.97-15.65,1.68-25.47-2.59-3.18-1.46-6.48-2.64-9.87-3.51-5.66-1.52-11.71-.29-16.33,3.32l24.12,15.89c-8,5.76-15.86,9.07-25.34,5.49-3.42-1.84-7.61-1.43-10.6,1.04l8.02,5.87c-13.15,4.62-36.23,3.12-49.01-9.82-6.82-6.91-12.31-22.47-9.37-30.1l4.36,11.66c7.2-30.3,25.28-48.45,54.83-49.58,46.68-1.81,60.51,40.99,60.96,40.84-.23-1.45-.36-2.92-.72-4.34C127.76,18.08,93.41-4.66,57.34.81,33.61,4.11,13.46,19.83,4.49,42.03,1.99,48.4.52,55.13.13,61.95c-1.34,22.98,7.39,33.62,26.33,39.92,1.51.5,3.05.91,4.6,1.28,19.41,4.61,37.87.53,56.05-6.13,11.79-4.32,23.58-8.68,35.39-12.95,5.6-2.02,11.22-4.01,16.83-5.99,4.58-1.62,9.16-3.24,13.73-4.91,3.22-1.18,7.6-2.8,6.85-5.22"></path>
      <path id="Trazado_44" data-name="Trazado 44" class="cls-2" d="m130.92,81.81l-15.35,7.12c-.02.61-.04,1.23-.06,1.85,3.46,1.26,7.47,4.27,10.24,3.39,4.68-1.49,5.32-6.76,5.17-12.37"></path>
      <path id="Trazado_45" data-name="Trazado 45" class="cls-3" d="m120.1,118.94c-1.2-1.01-2.31-2.12-3.33-3.32-3.74-4.23-15.37-7.3-15.37-7.3-1.08-.79-1.98-1.79-2.64-2.96-.37-.62-.79-1.2-1.26-1.74-.48-.57-1.01-1.1-1.59-1.57-5.97-11.26-12.43,7.88-13.97,8.71-.71.36-1.35.86-1.87,1.46-.3.3-.62.58-.96.84-1.31,1.03-2.26.25-4.38-2.18-.28-.3-.57-.65-.89-1.02-1.21-1.39-3.2.21-5.09,2.49-1.78,2.26-3.38,4.66-4.78,7.18-.81.15-1.58.44-2.29.84-1.1.56-1.9,1.59-2.18,2.79-.63.13-1.25.32-1.84.57-2.13.87-3.91,2.42-5.05,4.42-3.44-1.5-7.35-1.45-10.75.12-1.47-1.82-3.65-2.92-5.99-3.02-.42-.05-.72-.06-.83-.07h-.05c-.43-5.74-9.64-6.31-9.64-6.31-3.74.57-7.55-.24-10.74-2.27-.17-.2-.34-.39-.5-.6l-.84-.18c.18.34.39.66.63.97,1.05,1.21,2.12,2.38,3.23,3.51,13.28,13.82,31.62,21.65,50.79,21.69.34,0,.67.02,1,.02,13.77.02,27.25-4.01,38.75-11.57-.83.08-1.67.15-2.51.18-.46.02-.95-.46-1.42-.7l.15-.3c1.77-.36,3.56-.6,5.29-1.1.75-.21,1.49-.47,2.23-.72,3.36-2.52,6.49-5.33,9.35-8.4-.22-.14-.44-.3-.64-.47m-43.89,9.88c-2.27.12-4.54.05-7.12.05,1.32-2.61,2.82-4.04,5.52-3.59.88.08,1.77.09,2.66.02v-.47h-4.54c.2-1.21.69-1.66,1.72-1.62,1.38.06,2.76,0,4.15,0v-.42h-3.55c-.07-.17-.13-.34-.2-.51.38-.32.82-.56,1.29-.72.87-.11,1.76,0,2.65-.02.4-.04.8-.11,1.19-.21,0-.13,0-.26-.02-.38l-3.6-.16c1.38-1.56,3.42-.33,5.28-1.39l-2.16-.44,1.68-2.03c.21.07.32.06.37.12q1.89,1.85.49,4.09c-1.4,2.23-2.72,4.45-4.18,6.61-.38.56-.97.95-1.63,1.08m11.71-9.67c-.6,3.66-1.11,7.32-1.64,10.99-.14.93-.56,1.41-1.56,1.34-1.14-.08-2.29-.08-3.44-.11-1.08-.03-1.48-.68-1.06-1.55.46-1.03,1.1-1.96,1.9-2.76.83-.77,2-.25,2.99,1.21.14-.77.25-1.37.38-2.09l-3.72-.24c.76-1.04,1.14-2.05,1.86-2.42.56-.3,1.51.21,2.37.37.36-1.46-1.12-1.36-2.29-1.74.89-.98,1.77-.49,2.7-.36.27-1.51-.94-1.37-1.84-1.55v-.44l2.12-.34c.32-1.48-1.31-.36-1.62-1.1,0-.05,0-.21.06-.29.48-.49.64-1.63,1.61-1.19.89.37,1.38,1.33,1.16,2.27m2.34-5.18c.76.32,1.53.64,2.29.96.48.27.99.49,1.51.67.83.21,1.71.24,2.55.43,1.17.37,2.36.67,3.56.91,2.28.38,4.38,1.5,5.98,3.17-2.25.61-4.65.26-6.64-.95-1.56-1.21-3.41-1.99-5.37-2.28-1.55-.46-2.96-1.32-4.07-2.49l.18-.44m14.09,9.05c-1.81.71-2.72.33-3.74-1.51,1.43-.62,2.32-.27,3.74,1.51m-5.87-2.46c-1.54.82-2.75.27-3.57-1.62,1.41-.55,2.47-.07,3.57,1.62m-5.12,10.84c-.25,0-.6-.5-.7-.83-1.17-3.98-2.36-7.96-3.39-11.97-.14-.53.52-1.27.8-1.91.51.21,1.01.46,1.48.74.27.27.5.57.67.91l-1.87.2c.2,1.67,2.03.12,2.39,1.39-.49.51-2.16-.02-1.51,1.67,1.61-.46,1.77-.44,2.46.32q-1.97.78-1.64,2c1.65-1.54,3.27-.56,3.93,1.91l-3.24.16.5,1.65c.67-.36,1.37-1.04,1.93-.94.8.25,1.5.73,2.03,1.38.66.81,1.26,1.67,1.8,2.57-1.79.71-3.72.97-5.64.76m4.21-9.52c1.39-.65,2.72-.04,3.61,1.68-1.75.62-2.61.23-3.61-1.68m2.51,3.97c.8-.28,1.55-.47,2.26-.79,1.85-.82,3.72-1.6,5.51-2.55,1.08-.57,1.61-.25,2.09.66-1.93,1.93-8.66,3.83-9.85,2.69m12.32.27c-3.01,1.38-6.27,2.14-9.59,2.23-.4.03-.82-.38-1.23-.59l.11-.3c1.69-.45,3.41-.82,5.07-1.37,1.54-.52,3.04-1.15,4.49-1.89.53-.4,1.29-.29,1.69.24.07.09.13.19.17.3.51.83-.2,1.12-.72,1.38"></path>
    </g>
  </g>
</svg>
