<?xml version="1.0" encoding="UTF-8"?>
<svg xmlns="http://www.w3.org/2000/svg" id="Capa_2" data-name="Capa 2" viewBox="0 0 243.3 61.78">
  <defs>
    <style>
      .cls-1 {
        fill: #fff;
      }
    </style>
  </defs>
  <g id="Capa_1-2" data-name="Capa 1">
    <g>
      <g>
        <path id="Trazado_40" data-name="Trazado 40" class="cls-1" d="m86.07,42.66h-2.2v-.66h5.05v.66h-2.2v5.02h-.65v-5.02Zm9.89-.66h2.99c.81-.09,1.54.49,1.63,1.3.01.09.01.18,0,.28.04.77-.49,1.45-1.24,1.6l1.31,2.5h-.72l-1.31-2.48h-2.03v2.48h-.65v-5.68Zm2.95,2.53c.66,0,1-.33,1-.93.04-.48-.31-.9-.79-.95-.06,0-.12,0-.18,0h-2.34v1.87h2.31Zm11.06-2.53h.54l2.59,5.68h-.71l-.71-1.53h-2.89l-.69,1.53h-.7l2.57-5.68Zm1.42,3.48l-1.15-2.52-1.14,2.52h2.3Zm10.46,2.19l-2.52-5.68h.71l2.01,4.55,2.01-4.55h.72l-2.53,5.68h-.41Zm10.44-5.68h4.11v.66h-3.46v1.67h2.09v.66h-2.09v2.05h3.67v.66h-4.32v-5.69Zm12.07,0h.65v5.02h3.4v.66h-4.06v-5.68Zm23.41,0h.54l2.59,5.68h-.71l-.71-1.53h-2.89l-.69,1.53h-.7l2.56-5.68Zm1.42,3.48l-1.15-2.52-1.14,2.52h2.3Zm13.1-.18h-1.42v-.66h2.07v1.71c-.44.91-1.36,1.48-2.37,1.46-1.64-.15-2.85-1.61-2.69-3.25.13-1.43,1.27-2.56,2.69-2.69.95,0,1.82.5,2.29,1.33l-.54.42c-.32-.67-1-1.1-1.74-1.08-1.28.17-2.18,1.34-2.01,2.61.14,1.05.96,1.87,2.01,2.01.72,0,1.38-.39,1.71-1.02v-.83Zm8.77-3.31h4.11v.66h-3.46v1.67h2.09v.66h-2.09v2.05h3.67v.66h-4.32v-5.69Zm12.07,0h.34l3.39,4.24v-4.24h.65v5.68h-.33l-3.4-4.24v4.24h-.65v-5.68Zm17.41,4.29c-.42.95-1.37,1.55-2.4,1.54-1.64-.15-2.85-1.61-2.69-3.25.13-1.43,1.27-2.56,2.69-2.69.95,0,1.82.5,2.29,1.33l-.54.42c-.32-.67-1-1.1-1.74-1.08-1.28.16-2.18,1.33-2.02,2.6.13,1.06.96,1.89,2.02,2.02.83,0,1.58-.52,1.88-1.3l.52.42Zm9.03-1.45l-2.35-2.83h.81l1.87,2.24,1.87-2.24h.82l-2.37,2.84v2.83h-.65v-2.85Z"></path>
        <g>
          <path id="Trazado_41" data-name="Trazado 41" class="cls-1" d="m73.18,14.26h4.94c1.39-.11,2.75.38,3.75,1.34.91,1.11,1.35,2.52,1.25,3.94v2.1c.1,1.42-.35,2.83-1.25,3.94-1,.96-2.37,1.45-3.75,1.34h-1.59v8.7h-3.36V14.26Zm4.94,9.61c.46.03.91-.13,1.24-.46.32-.45.46-1,.41-1.56v-2.53c.05-.55-.09-1.1-.41-1.56-.33-.33-.78-.49-1.24-.46h-1.59v6.56h1.59Zm9.89-9.61h9.16v3.05h-5.8v5.65h4.6v3.05h-4.6v6.56h5.8v3.05h-9.16V14.26Zm14.13,0h4.98c1.37-.12,2.74.31,3.79,1.21.87,1.03,1.3,2.36,1.19,3.71v1.31c0,2.22-.73,3.62-2.2,4.21v.06c.77.21,1.41.76,1.73,1.5.37.96.54,1.99.5,3.02v3.76c0,.49.01.99.06,1.48.04.38.15.76.31,1.11h-3.42c-.11-.32-.2-.64-.24-.98-.05-.55-.07-1.1-.06-1.65v-3.91c.07-.71-.1-1.43-.47-2.04-.43-.43-1.03-.64-1.63-.58h-1.16v9.16h-3.36V14.26Zm4.58,9.16c.55.04,1.1-.14,1.51-.52.38-.49.56-1.12.5-1.74v-1.65c.05-.59-.1-1.18-.41-1.68-.33-.37-.81-.56-1.3-.52h-1.53v6.1h1.22Zm11.93,11.13c-.92-1.12-1.38-2.54-1.28-3.98V14.26h3.36v16.55c-.05.57.11,1.13.44,1.59.72.65,1.81.65,2.53,0,.34-.46.49-1.02.44-1.59V14.26h3.23v16.3c.1,1.44-.36,2.87-1.28,3.98-2.14,1.85-5.31,1.85-7.45,0"></path>
          <path id="Trazado_42" data-name="Trazado 42" class="cls-1" d="m133.87,34.56c-.9-1.08-1.36-2.47-1.27-3.88v-11.47c-.09-1.41.36-2.79,1.27-3.88,2.11-1.83,5.25-1.83,7.36,0,.9,1.08,1.36,2.47,1.27,3.88v2.26h-3.18v-2.47c0-1.32-.56-1.98-1.68-1.98s-1.68.66-1.68,1.98v11.93c0,1.3.56,1.95,1.68,1.95s1.68-.65,1.68-1.95v-3.27h3.17v3.02c.09,1.41-.36,2.79-1.27,3.88-2.11,1.83-5.25,1.83-7.36,0m14.82-.03c-.93-1.1-1.41-2.53-1.31-3.97v-11.23c-.09-1.44.38-2.86,1.31-3.97,2.18-1.87,5.39-1.87,7.57,0,.93,1.1,1.41,2.52,1.31,3.97v11.23c.09,1.44-.38,2.87-1.31,3.97-2.18,1.87-5.39,1.87-7.57,0m5.52-3.75v-11.66c0-1.4-.58-2.1-1.74-2.1s-1.74.7-1.74,2.1v11.66c0,1.4.58,2.1,1.74,2.1s1.74-.7,1.74-2.1m8.67-16.51h4.21l3.27,12.79h.06v-12.79h2.99v21.36h-3.44l-4.03-15.6h-.06v15.6h-2.99V14.26Zm16.09,0h9.16v3.05h-5.8v5.65h4.6v3.05h-4.6v6.56h5.8v3.05h-9.16V14.26Zm17.16,10.44l-3.69-10.44h3.54l2.26,6.89h.06l2.32-6.9h3.17l-3.69,10.45,3.88,10.93h-3.54l-2.44-7.45h-.06l-2.5,7.45h-3.17l3.87-10.93Zm12.48-10.44h3.36v21.36h-3.35V14.27Zm9.98,20.27c-.93-1.1-1.41-2.53-1.31-3.97v-11.24c-.09-1.44.38-2.86,1.31-3.97,2.18-1.87,5.39-1.87,7.57,0,.93,1.1,1.41,2.52,1.31,3.97v11.23c.09,1.44-.38,2.87-1.31,3.97-2.18,1.87-5.39,1.87-7.57,0m5.52-3.75v-11.66c0-1.4-.58-2.1-1.74-2.1s-1.74.7-1.74,2.1v11.66c0,1.4.58,2.1,1.74,2.1s1.74-.7,1.74-2.1m8.67-16.51h4.21l3.27,12.79h.06v-12.79h2.99v21.36h-3.45l-4.02-15.6h-.06v15.6h-2.99V14.26Z"></path>
        </g>
      </g>
      <g>
        <path id="Trazado_44" data-name="Trazado 44" class="cls-1" d="m56.93,35.59l-6.68,3.1c0,.27-.02.54-.03.8,1.5.55,3.25,1.86,4.45,1.48,2.03-.65,2.31-2.94,2.25-5.38"></path>
        <g>
          <path id="Trazado_43" data-name="Trazado 43" class="cls-1" d="m69.54,29.56c-.13-.42-.95-.83-2.22-.7-1.66.17-1.96-.93-6.54.22-.58.15-3.16.87-3.73,1.04-4.4,1.29-6.81.73-11.08-1.13-1.38-.64-2.82-1.15-4.29-1.53-2.46-.66-5.09-.13-7.1,1.45l10.49,6.91c-3.48,2.51-6.9,3.94-11.02,2.39-1.49-.8-3.31-.62-4.61.45l3.49,2.55c-5.72,2.01-15.76,1.36-21.31-4.27-2.97-3-5.35-9.78-4.08-13.1l1.9,5.07c3.13-13.18,10.99-21.08,23.84-21.57,20.3-.79,26.32,17.83,26.51,17.77-.1-.63-.16-1.27-.31-1.89C55.56,7.87,40.62-2.03,24.94.35,14.62,1.79,5.85,8.63,1.95,18.29.87,21.06.23,23.98.06,26.95c-.58,10,3.21,14.63,11.45,17.37.66.22,1.33.39,2,.55,8.44,2.01,16.47.23,24.37-2.67,5.13-1.88,10.26-3.78,15.39-5.64,2.43-.88,4.88-1.74,7.32-2.61,1.99-.7,3.98-1.41,5.97-2.14,1.4-.51,3.31-1.22,2.98-2.27"></path>
          <path id="Trazado_45" data-name="Trazado 45" class="cls-1" d="m52.23,51.75c-.52-.44-1.01-.92-1.45-1.45-1.63-1.84-6.68-3.18-6.68-3.18-.47-.34-.86-.78-1.15-1.29-.16-.27-.34-.52-.55-.76-.21-.25-.44-.48-.69-.69-2.6-4.9-5.41,3.43-6.08,3.79-.31.16-.59.37-.81.64-.13.13-.27.25-.42.36-.57.45-.98.11-1.91-.95-.12-.13-.25-.28-.39-.45-.53-.6-1.39.09-2.21,1.08-.77.98-1.47,2.03-2.08,3.12-.35.07-.69.19-1,.37-.48.24-.83.69-.95,1.21-.27.06-.54.14-.8.25-.93.38-1.7,1.05-2.2,1.92-1.49-.65-3.2-.63-4.67.05-.64-.79-1.59-1.27-2.6-1.31-.18-.02-.31-.03-.36-.03h-.02c-.19-2.5-4.19-2.75-4.19-2.75-1.63.25-3.28-.1-4.67-.99-.07-.09-.15-.17-.22-.26l-.36-.08c.08.15.17.29.27.42.45.53.92,1.03,1.4,1.53,5.78,6.01,13.75,9.42,22.09,9.44.15,0,.29.01.43.01,5.99,0,11.85-1.74,16.85-5.03-.36.03-.73.06-1.09.08-.2,0-.41-.2-.62-.31l.06-.13c.77-.16,1.55-.26,2.3-.48.33-.09.65-.2.97-.31,1.46-1.1,2.82-2.32,4.07-3.65-.1-.06-.19-.13-.28-.2m-19.09,4.3c-.99.05-1.97.02-3.1.02.57-1.14,1.23-1.76,2.4-1.56.38.03.77.04,1.16.01v-.21h-1.97c.09-.53.3-.72.75-.7.6.02,1.2,0,1.8,0v-.18h-1.54c-.03-.07-.06-.15-.09-.22.17-.14.36-.24.56-.31.38-.05.77,0,1.15-.01.17-.02.35-.05.52-.09,0-.06,0-.11,0-.17l-1.56-.07c.6-.68,1.49-.14,2.3-.6l-.94-.19.73-.88c.09.03.14.03.16.05q.82.81.21,1.78c-.61.97-1.18,1.94-1.82,2.88-.16.25-.42.41-.71.47m5.09-4.21c-.26,1.59-.48,3.19-.71,4.78-.06.4-.24.61-.68.58-.5-.03-1-.04-1.49-.05-.47-.01-.64-.3-.46-.68.2-.45.48-.85.83-1.2.36-.34.87-.11,1.3.53.06-.34.11-.6.16-.91l-1.62-.11c.33-.45.5-.89.81-1.05.24-.13.66.09,1.03.16.16-.64-.49-.59-.99-.76.39-.43.77-.21,1.18-.16.12-.66-.41-.59-.8-.67v-.19l.92-.15c.14-.64-.57-.16-.7-.48,0-.02,0-.09.02-.12.21-.21.28-.71.7-.52.39.16.6.58.5.99m1.02-2.25c.33.14.67.28,1,.42.21.12.43.21.66.29.36.09.74.1,1.11.19.51.16,1.03.29,1.55.39.99.17,1.91.65,2.6,1.38-.98.26-2.02.11-2.89-.41-.68-.53-1.48-.87-2.34-.99-.68-.2-1.29-.57-1.77-1.08l.08-.19m6.13,3.94c-.79.31-1.18.14-1.63-.66.62-.27,1.01-.12,1.63.66m-2.55-1.07c-.67.36-1.2.12-1.55-.71.61-.24,1.08-.03,1.55.71m-2.22,4.72c-.11,0-.26-.22-.3-.36-.51-1.73-1.02-3.46-1.48-5.21-.06-.23.22-.55.35-.83.22.09.44.2.65.32.12.12.22.25.29.39l-.82.09c.09.73.88.05,1.04.61-.21.22-.94-.01-.66.73.7-.2.77-.19,1.07.14q-.86.34-.71.87c.72-.67,1.42-.24,1.71.83l-1.41.07.22.72c.29-.16.6-.45.84-.41.35.11.65.32.88.6.29.35.55.73.78,1.12-.78.31-1.62.42-2.45.33m1.83-4.14c.61-.28,1.18-.02,1.57.73-.76.27-1.13.1-1.57-.73m1.09,1.73c.35-.12.67-.21.98-.34.81-.35,1.62-.7,2.4-1.11.47-.25.7-.11.91.29-.84.84-3.77,1.67-4.28,1.17m5.36.12c-1.31.6-2.73.93-4.17.97-.17.01-.36-.16-.54-.26l.05-.13c.74-.2,1.48-.36,2.21-.6.67-.23,1.32-.5,1.95-.82.23-.17.56-.13.74.1.03.04.05.08.07.13.22.36-.09.49-.31.6"></path>
        </g>
      </g>
    </g>
  </g>
</svg>
